<svg xmlns="http://www.w3.org/2000/svg" xmlns:rdkit="http://www.rdkit.org/xml" xmlns:xlink="http://www.w3.org/1999/xlink" version="1.1" baseProfile="full" xml:space="preserve" width="900px" height="300px" viewBox="0 0 900 300">
<!-- END OF HEADER -->
<rect style="opacity:1.0;fill:#FFFFFF;stroke:none" width="900.0" height="300.0" x="0.0" y="0.0"> </rect>
<path class="bond-0 atom-0 atom-1" d="M 124.9,92.9 L 160.6,72.3" style="fill:none;fill-rule:evenodd;stroke:#000000;stroke-width:2.0px;stroke-linecap:butt;stroke-linejoin:miter;stroke-opacity:1"/>
<path class="bond-1 atom-1 atom-2" d="M 160.6,72.3 L 175.0,80.7" style="fill:none;fill-rule:evenodd;stroke:#000000;stroke-width:2.0px;stroke-linecap:butt;stroke-linejoin:miter;stroke-opacity:1"/>
<path class="bond-1 atom-1 atom-2" d="M 175.0,80.7 L 189.5,89.0" style="fill:none;fill-rule:evenodd;stroke:#FF0000;stroke-width:2.0px;stroke-linecap:butt;stroke-linejoin:miter;stroke-opacity:1"/>
<path class="bond-2 atom-3 atom-4" d="M 241.2,129.3 L 232.7,144.2" style="fill:none;fill-rule:evenodd;stroke:#FF0000;stroke-width:2.0px;stroke-linecap:butt;stroke-linejoin:miter;stroke-opacity:1"/>
<path class="bond-2 atom-3 atom-4" d="M 232.7,144.2 L 224.1,159.1" style="fill:none;fill-rule:evenodd;stroke:#000000;stroke-width:2.0px;stroke-linecap:butt;stroke-linejoin:miter;stroke-opacity:1"/>
<path class="bond-2 atom-3 atom-4" d="M 235.9,126.2 L 227.3,141.1" style="fill:none;fill-rule:evenodd;stroke:#FF0000;stroke-width:2.0px;stroke-linecap:butt;stroke-linejoin:miter;stroke-opacity:1"/>
<path class="bond-2 atom-3 atom-4" d="M 227.3,141.1 L 218.7,156.0" style="fill:none;fill-rule:evenodd;stroke:#000000;stroke-width:2.0px;stroke-linecap:butt;stroke-linejoin:miter;stroke-opacity:1"/>
<path class="bond-3 atom-4 atom-5" d="M 222.3,156.0 L 230.5,170.2" style="fill:none;fill-rule:evenodd;stroke:#000000;stroke-width:2.0px;stroke-linecap:butt;stroke-linejoin:miter;stroke-opacity:1"/>
<path class="bond-3 atom-4 atom-5" d="M 230.5,170.2 L 238.7,184.3" style="fill:none;fill-rule:evenodd;stroke:#FF0000;stroke-width:2.0px;stroke-linecap:butt;stroke-linejoin:miter;stroke-opacity:1"/>
<path class="bond-4 atom-4 atom-6" d="M 222.3,156.0 L 181.1,156.0" style="fill:none;fill-rule:evenodd;stroke:#000000;stroke-width:2.0px;stroke-linecap:butt;stroke-linejoin:miter;stroke-opacity:1"/>
<path class="bond-5 atom-6 atom-7" d="M 181.1,156.0 L 160.6,191.6" style="fill:none;fill-rule:evenodd;stroke:#000000;stroke-width:2.0px;stroke-linecap:butt;stroke-linejoin:miter;stroke-opacity:1"/>
<path class="bond-6 atom-7 atom-8" d="M 160.6,191.6 L 119.4,191.6" style="fill:none;fill-rule:evenodd;stroke:#000000;stroke-width:2.0px;stroke-linecap:butt;stroke-linejoin:miter;stroke-opacity:1"/>
<path class="bond-7 atom-8 atom-9" d="M 119.4,191.6 L 98.9,156.0" style="fill:none;fill-rule:evenodd;stroke:#000000;stroke-width:2.0px;stroke-linecap:butt;stroke-linejoin:miter;stroke-opacity:1"/>
<path class="bond-8 atom-9 atom-10" d="M 98.9,156.0 L 81.6,156.0" style="fill:none;fill-rule:evenodd;stroke:#000000;stroke-width:2.0px;stroke-linecap:butt;stroke-linejoin:miter;stroke-opacity:1"/>
<path class="bond-8 atom-9 atom-10" d="M 81.6,156.0 L 64.4,156.0" style="fill:none;fill-rule:evenodd;stroke:#FF0000;stroke-width:2.0px;stroke-linecap:butt;stroke-linejoin:miter;stroke-opacity:1"/>
<path class="bond-9 atom-9 atom-11" d="M 98.9,156.0 L 119.4,120.3" style="fill:none;fill-rule:evenodd;stroke:#000000;stroke-width:2.0px;stroke-linecap:butt;stroke-linejoin:miter;stroke-opacity:1"/>
<path class="bond-10 atom-11 atom-12" d="M 119.4,120.3 L 160.6,120.3" style="fill:none;fill-rule:evenodd;stroke:#000000;stroke-width:2.0px;stroke-linecap:butt;stroke-linejoin:miter;stroke-opacity:1"/>
<path class="bond-11 atom-12 atom-6" d="M 160.6,120.3 L 181.1,156.0" style="fill:none;fill-rule:evenodd;stroke:#000000;stroke-width:2.0px;stroke-linecap:butt;stroke-linejoin:miter;stroke-opacity:1"/>
<path d="M 158.8,73.4 L 160.6,72.3 L 161.3,72.7" style="fill:none;stroke:#000000;stroke-width:2.0px;stroke-linecap:butt;stroke-linejoin:miter;stroke-opacity:1;"/>
<path d="M 222.7,156.7 L 222.3,156.0 L 220.2,156.0" style="fill:none;stroke:#000000;stroke-width:2.0px;stroke-linecap:butt;stroke-linejoin:miter;stroke-opacity:1;"/>
<path d="M 161.6,189.8 L 160.6,191.6 L 158.5,191.6" style="fill:none;stroke:#000000;stroke-width:2.0px;stroke-linecap:butt;stroke-linejoin:miter;stroke-opacity:1;"/>
<path d="M 121.5,191.6 L 119.4,191.6 L 118.4,189.8" style="fill:none;stroke:#000000;stroke-width:2.0px;stroke-linecap:butt;stroke-linejoin:miter;stroke-opacity:1;"/>
<path d="M 118.4,122.1 L 119.4,120.3 L 121.5,120.3" style="fill:none;stroke:#000000;stroke-width:2.0px;stroke-linecap:butt;stroke-linejoin:miter;stroke-opacity:1;"/>
<path d="M 158.5,120.3 L 160.6,120.3 L 161.6,122.1" style="fill:none;stroke:#000000;stroke-width:2.0px;stroke-linecap:butt;stroke-linejoin:miter;stroke-opacity:1;"/>
<path class="atom-2" d="M 190.9 92.9 Q 190.9 90.1, 192.2 88.6 Q 193.6 87.0, 196.2 87.0 Q 198.8 87.0, 200.2 88.6 Q 201.6 90.1, 201.6 92.9 Q 201.6 95.8, 200.2 97.4 Q 198.8 99.0, 196.2 99.0 Q 193.6 99.0, 192.2 97.4 Q 190.9 95.8, 190.9 92.9 M 196.2 97.7 Q 198.0 97.7, 198.9 96.5 Q 199.9 95.3, 199.9 92.9 Q 199.9 90.6, 198.9 89.5 Q 198.0 88.3, 196.2 88.3 Q 194.4 88.3, 193.5 89.5 Q 192.5 90.6, 192.5 92.9 Q 192.5 95.3, 193.5 96.5 Q 194.4 97.7, 196.2 97.7 " fill="#FF0000"/>
<path class="atom-2" d="M 203.4 87.1 L 204.9 87.1 L 204.9 92.1 L 210.9 92.1 L 210.9 87.1 L 212.5 87.1 L 212.5 98.8 L 210.9 98.8 L 210.9 93.4 L 204.9 93.4 L 204.9 98.8 L 203.4 98.8 L 203.4 87.1 " fill="#FF0000"/>
<path class="atom-3" d="M 237.5 120.4 Q 237.5 117.6, 238.9 116.0 Q 240.3 114.4, 242.9 114.4 Q 245.4 114.4, 246.8 116.0 Q 248.2 117.6, 248.2 120.4 Q 248.2 123.2, 246.8 124.8 Q 245.4 126.4, 242.9 126.4 Q 240.3 126.4, 238.9 124.8 Q 237.5 123.2, 237.5 120.4 M 242.9 125.1 Q 244.6 125.1, 245.6 123.9 Q 246.6 122.7, 246.6 120.4 Q 246.6 118.1, 245.6 116.9 Q 244.6 115.8, 242.9 115.8 Q 241.1 115.8, 240.1 116.9 Q 239.2 118.1, 239.2 120.4 Q 239.2 122.7, 240.1 123.9 Q 241.1 125.1, 242.9 125.1 " fill="#FF0000"/>
<path class="atom-5" d="M 237.5 191.6 Q 237.5 188.8, 238.9 187.3 Q 240.3 185.7, 242.9 185.7 Q 245.4 185.7, 246.8 187.3 Q 248.2 188.8, 248.2 191.6 Q 248.2 194.5, 246.8 196.1 Q 245.4 197.7, 242.9 197.7 Q 240.3 197.7, 238.9 196.1 Q 237.5 194.5, 237.5 191.6 M 242.9 196.4 Q 244.6 196.4, 245.6 195.2 Q 246.6 194.0, 246.6 191.6 Q 246.6 189.3, 245.6 188.2 Q 244.6 187.0, 242.9 187.0 Q 241.1 187.0, 240.1 188.2 Q 239.2 189.3, 239.2 191.6 Q 239.2 194.0, 240.1 195.2 Q 241.1 196.4, 242.9 196.4 " fill="#FF0000"/>
<path class="atom-5" d="M 250.0 185.8 L 251.6 185.8 L 251.6 190.8 L 257.6 190.8 L 257.6 185.8 L 259.1 185.8 L 259.1 197.5 L 257.6 197.5 L 257.6 192.1 L 251.6 192.1 L 251.6 197.5 L 250.0 197.5 L 250.0 185.8 " fill="#FF0000"/>
<path class="atom-10" d="M 40.9 150.2 L 42.4 150.2 L 42.4 155.2 L 48.4 155.2 L 48.4 150.2 L 50.0 150.2 L 50.0 161.9 L 48.4 161.9 L 48.4 156.5 L 42.4 156.5 L 42.4 161.9 L 40.9 161.9 L 40.9 150.2 " fill="#FF0000"/>
<path class="atom-10" d="M 52.4 156.0 Q 52.4 153.2, 53.7 151.6 Q 55.1 150.1, 57.7 150.1 Q 60.3 150.1, 61.7 151.6 Q 63.1 153.2, 63.1 156.0 Q 63.1 158.8, 61.7 160.4 Q 60.3 162.0, 57.7 162.0 Q 55.1 162.0, 53.7 160.4 Q 52.4 158.8, 52.4 156.0 M 57.7 160.7 Q 59.5 160.7, 60.4 159.5 Q 61.4 158.3, 61.4 156.0 Q 61.4 153.7, 60.4 152.6 Q 59.5 151.4, 57.7 151.4 Q 55.9 151.4, 55.0 152.5 Q 54.0 153.7, 54.0 156.0 Q 54.0 158.4, 55.0 159.5 Q 55.9 160.7, 57.7 160.7 " fill="#FF0000"/>
<path class="legend" d="M 130.0 278.4 L 126.5 278.4 L 126.5 277.2 L 134.9 277.2 L 134.9 278.4 L 131.6 278.4 L 131.6 288.5 L 130.0 288.5 L 130.0 278.4 " fill="#000000"/>
<path class="legend" d="M 135.6 286.3 Q 135.6 284.9, 136.6 284.2 Q 137.7 283.5, 139.6 283.5 L 140.8 283.5 L 140.8 283.2 Q 140.8 282.2, 140.4 281.7 Q 140.0 281.3, 138.9 281.3 Q 138.3 281.3, 137.8 281.4 Q 137.3 281.5, 136.5 281.9 L 136.0 280.9 Q 137.5 280.1, 139.0 280.1 Q 140.7 280.1, 141.5 280.9 Q 142.3 281.6, 142.3 283.2 L 142.3 288.5 L 141.2 288.5 Q 141.1 288.4, 141.1 288.2 Q 141.0 287.9, 140.9 287.5 Q 139.8 288.7, 138.3 288.7 Q 137.0 288.7, 136.3 288.0 Q 135.6 287.4, 135.6 286.3 M 137.1 286.2 Q 137.1 286.8, 137.4 287.2 Q 137.8 287.5, 138.5 287.5 Q 139.2 287.5, 139.8 287.2 Q 140.4 286.9, 140.8 286.4 L 140.8 284.6 L 139.7 284.6 Q 138.4 284.6, 137.7 285.0 Q 137.1 285.4, 137.1 286.2 " fill="#000000"/>
<path class="legend" d="M 145.4 280.3 L 145.6 281.4 Q 146.5 280.1, 147.9 280.1 Q 148.3 280.1, 148.9 280.3 L 148.7 281.6 Q 148.0 281.5, 147.6 281.5 Q 147.0 281.5, 146.5 281.7 Q 146.1 282.0, 145.7 282.6 L 145.7 288.5 L 144.2 288.5 L 144.2 280.3 L 145.4 280.3 " fill="#000000"/>
<path class="legend" d="M 157.3 280.2 L 157.3 289.0 Q 157.3 292.5, 153.6 292.5 Q 151.8 292.5, 150.2 291.7 L 150.7 290.6 Q 151.5 291.0, 152.2 291.2 Q 152.8 291.3, 153.6 291.3 Q 154.8 291.3, 155.3 290.8 Q 155.8 290.2, 155.8 289.0 L 155.8 287.6 Q 155.0 288.6, 153.5 288.6 Q 151.8 288.6, 150.8 287.6 Q 149.9 286.5, 149.9 284.5 Q 149.9 282.4, 151.0 281.3 Q 152.1 280.1, 154.1 280.1 Q 155.1 280.1, 156.1 280.4 L 156.1 280.2 L 157.3 280.2 M 153.6 287.4 Q 154.4 287.4, 155.0 287.0 Q 155.6 286.5, 155.8 285.7 L 155.8 281.5 Q 155.0 281.3, 154.1 281.3 Q 152.8 281.3, 152.1 282.1 Q 151.4 283.0, 151.4 284.5 Q 151.4 285.9, 152.0 286.7 Q 152.5 287.4, 153.6 287.4 " fill="#000000"/>
<path class="legend" d="M 159.3 284.4 Q 159.3 282.3, 160.3 281.2 Q 161.3 280.1, 163.2 280.1 Q 165.0 280.1, 165.8 281.2 Q 166.6 282.3, 166.6 284.3 L 166.6 284.6 L 160.9 284.6 Q 160.9 286.0, 161.5 286.7 Q 162.1 287.4, 163.3 287.4 Q 163.9 287.4, 164.5 287.3 Q 165.1 287.1, 165.9 286.8 L 166.3 287.8 Q 165.5 288.2, 164.7 288.4 Q 164.0 288.6, 163.2 288.6 Q 161.4 288.6, 160.3 287.5 Q 159.3 286.4, 159.3 284.4 M 163.2 281.3 Q 162.2 281.3, 161.7 281.8 Q 161.1 282.4, 160.9 283.4 L 165.0 283.4 Q 164.9 282.3, 164.5 281.8 Q 164.0 281.3, 163.2 281.3 " fill="#000000"/>
<path class="legend" d="M 167.9 281.4 L 167.9 280.3 L 169.5 280.3 L 169.7 277.9 L 170.8 277.9 L 170.8 280.3 L 173.3 280.3 L 173.3 281.4 L 170.8 281.4 L 170.8 286.0 Q 170.8 287.4, 172.0 287.4 Q 172.5 287.4, 173.2 287.2 L 173.5 288.2 Q 172.6 288.6, 171.8 288.6 Q 170.7 288.6, 170.0 287.9 Q 169.3 287.3, 169.3 286.0 L 169.3 281.4 L 167.9 281.4 " fill="#000000"/>
<path class="bond-0 atom-0 atom-1" d="M 424.9,92.9 L 460.6,72.3" style="fill:none;fill-rule:evenodd;stroke:#000000;stroke-width:2.0px;stroke-linecap:butt;stroke-linejoin:miter;stroke-opacity:1"/>
<path class="bond-1 atom-1 atom-2" d="M 460.6,72.3 L 475.0,80.7" style="fill:none;fill-rule:evenodd;stroke:#000000;stroke-width:2.0px;stroke-linecap:butt;stroke-linejoin:miter;stroke-opacity:1"/>
<path class="bond-1 atom-1 atom-2" d="M 475.0,80.7 L 489.5,89.0" style="fill:none;fill-rule:evenodd;stroke:#FF0000;stroke-width:2.0px;stroke-linecap:butt;stroke-linejoin:miter;stroke-opacity:1"/>
<path class="bond-2 atom-3 atom-4" d="M 541.2,129.3 L 532.7,144.2" style="fill:none;fill-rule:evenodd;stroke:#FF0000;stroke-width:2.0px;stroke-linecap:butt;stroke-linejoin:miter;stroke-opacity:1"/>
<path class="bond-2 atom-3 atom-4" d="M 532.7,144.2 L 524.1,159.1" style="fill:none;fill-rule:evenodd;stroke:#000000;stroke-width:2.0px;stroke-linecap:butt;stroke-linejoin:miter;stroke-opacity:1"/>
<path class="bond-2 atom-3 atom-4" d="M 535.9,126.2 L 527.3,141.1" style="fill:none;fill-rule:evenodd;stroke:#FF0000;stroke-width:2.0px;stroke-linecap:butt;stroke-linejoin:miter;stroke-opacity:1"/>
<path class="bond-2 atom-3 atom-4" d="M 527.3,141.1 L 518.7,156.0" style="fill:none;fill-rule:evenodd;stroke:#000000;stroke-width:2.0px;stroke-linecap:butt;stroke-linejoin:miter;stroke-opacity:1"/>
<path class="bond-3 atom-4 atom-5" d="M 522.3,156.0 L 530.5,170.2" style="fill:none;fill-rule:evenodd;stroke:#000000;stroke-width:2.0px;stroke-linecap:butt;stroke-linejoin:miter;stroke-opacity:1"/>
<path class="bond-3 atom-4 atom-5" d="M 530.5,170.2 L 538.7,184.3" style="fill:none;fill-rule:evenodd;stroke:#FF0000;stroke-width:2.0px;stroke-linecap:butt;stroke-linejoin:miter;stroke-opacity:1"/>
<path class="bond-4 atom-6 atom-4" d="M 481.1,156.0 L 524.2,152.7 L 522.3,156.0 Z" style="fill:#000000;fill-rule:evenodd;fill-opacity:1;stroke:#000000;stroke-width:0.5px;stroke-linecap:butt;stroke-linejoin:miter;stroke-opacity:1;"/>
<path class="bond-4 atom-6 atom-4" d="M 481.1,156.0 L 522.3,156.0 L 524.2,159.2 Z" style="fill:#000000;fill-rule:evenodd;fill-opacity:1;stroke:#000000;stroke-width:0.5px;stroke-linecap:butt;stroke-linejoin:miter;stroke-opacity:1;"/>
<path class="bond-5 atom-6 atom-7" d="M 481.1,156.0 L 460.6,191.6" style="fill:none;fill-rule:evenodd;stroke:#000000;stroke-width:2.0px;stroke-linecap:butt;stroke-linejoin:miter;stroke-opacity:1"/>
<path class="bond-6 atom-7 atom-8" d="M 460.6,191.6 L 419.4,191.6" style="fill:none;fill-rule:evenodd;stroke:#000000;stroke-width:2.0px;stroke-linecap:butt;stroke-linejoin:miter;stroke-opacity:1"/>
<path class="bond-7 atom-8 atom-9" d="M 419.4,191.6 L 398.9,156.0" style="fill:none;fill-rule:evenodd;stroke:#000000;stroke-width:2.0px;stroke-linecap:butt;stroke-linejoin:miter;stroke-opacity:1"/>
<path class="bond-8 atom-9 atom-10" d="M 395.2,156.3 L 395.2,155.6" style="fill:none;fill-rule:evenodd;stroke:#000000;stroke-width:1.0px;stroke-linecap:butt;stroke-linejoin:miter;stroke-opacity:1"/>
<path class="bond-8 atom-9 atom-10" d="M 391.5,156.7 L 391.5,155.3" style="fill:none;fill-rule:evenodd;stroke:#000000;stroke-width:1.0px;stroke-linecap:butt;stroke-linejoin:miter;stroke-opacity:1"/>
<path class="bond-8 atom-9 atom-10" d="M 387.8,157.0 L 387.8,154.9" style="fill:none;fill-rule:evenodd;stroke:#000000;stroke-width:1.0px;stroke-linecap:butt;stroke-linejoin:miter;stroke-opacity:1"/>
<path class="bond-8 atom-9 atom-10" d="M 384.2,157.3 L 384.2,154.6" style="fill:none;fill-rule:evenodd;stroke:#000000;stroke-width:1.0px;stroke-linecap:butt;stroke-linejoin:miter;stroke-opacity:1"/>
<path class="bond-8 atom-9 atom-10" d="M 380.5,157.7 L 380.5,154.3" style="fill:none;fill-rule:evenodd;stroke:#FF0000;stroke-width:1.0px;stroke-linecap:butt;stroke-linejoin:miter;stroke-opacity:1"/>
<path class="bond-8 atom-9 atom-10" d="M 376.8,158.0 L 376.8,153.9" style="fill:none;fill-rule:evenodd;stroke:#FF0000;stroke-width:1.0px;stroke-linecap:butt;stroke-linejoin:miter;stroke-opacity:1"/>
<path class="bond-8 atom-9 atom-10" d="M 373.1,158.4 L 373.1,153.6" style="fill:none;fill-rule:evenodd;stroke:#FF0000;stroke-width:1.0px;stroke-linecap:butt;stroke-linejoin:miter;stroke-opacity:1"/>
<path class="bond-8 atom-9 atom-10" d="M 369.5,158.7 L 369.5,153.2" style="fill:none;fill-rule:evenodd;stroke:#FF0000;stroke-width:1.0px;stroke-linecap:butt;stroke-linejoin:miter;stroke-opacity:1"/>
<path class="bond-8 atom-9 atom-10" d="M 365.8,159.1 L 365.8,152.9" style="fill:none;fill-rule:evenodd;stroke:#FF0000;stroke-width:1.0px;stroke-linecap:butt;stroke-linejoin:miter;stroke-opacity:1"/>
<path class="bond-9 atom-9 atom-11" d="M 398.9,156.0 L 419.4,120.3" style="fill:none;fill-rule:evenodd;stroke:#000000;stroke-width:2.0px;stroke-linecap:butt;stroke-linejoin:miter;stroke-opacity:1"/>
<path class="bond-10 atom-11 atom-12" d="M 419.4,120.3 L 460.6,120.3" style="fill:none;fill-rule:evenodd;stroke:#000000;stroke-width:2.0px;stroke-linecap:butt;stroke-linejoin:miter;stroke-opacity:1"/>
<path class="bond-11 atom-12 atom-6" d="M 460.6,120.3 L 481.1,156.0" style="fill:none;fill-rule:evenodd;stroke:#000000;stroke-width:2.0px;stroke-linecap:butt;stroke-linejoin:miter;stroke-opacity:1"/>
<path d="M 458.8,73.4 L 460.6,72.3 L 461.3,72.7" style="fill:none;stroke:#000000;stroke-width:2.0px;stroke-linecap:butt;stroke-linejoin:miter;stroke-opacity:1;"/>
<path d="M 480.1,157.7 L 481.1,156.0 L 480.1,154.2" style="fill:none;stroke:#000000;stroke-width:2.0px;stroke-linecap:butt;stroke-linejoin:miter;stroke-opacity:1;"/>
<path d="M 461.6,189.8 L 460.6,191.6 L 458.5,191.6" style="fill:none;stroke:#000000;stroke-width:2.0px;stroke-linecap:butt;stroke-linejoin:miter;stroke-opacity:1;"/>
<path d="M 421.5,191.6 L 419.4,191.6 L 418.4,189.8" style="fill:none;stroke:#000000;stroke-width:2.0px;stroke-linecap:butt;stroke-linejoin:miter;stroke-opacity:1;"/>
<path d="M 399.9,157.7 L 398.9,156.0 L 399.9,154.2" style="fill:none;stroke:#000000;stroke-width:2.0px;stroke-linecap:butt;stroke-linejoin:miter;stroke-opacity:1;"/>
<path d="M 418.4,122.1 L 419.4,120.3 L 421.5,120.3" style="fill:none;stroke:#000000;stroke-width:2.0px;stroke-linecap:butt;stroke-linejoin:miter;stroke-opacity:1;"/>
<path d="M 458.5,120.3 L 460.6,120.3 L 461.6,122.1" style="fill:none;stroke:#000000;stroke-width:2.0px;stroke-linecap:butt;stroke-linejoin:miter;stroke-opacity:1;"/>
<path class="atom-2" d="M 490.9 92.9 Q 490.9 90.1, 492.2 88.6 Q 493.6 87.0, 496.2 87.0 Q 498.8 87.0, 500.2 88.6 Q 501.6 90.1, 501.6 92.9 Q 501.6 95.8, 500.2 97.4 Q 498.8 99.0, 496.2 99.0 Q 493.6 99.0, 492.2 97.4 Q 490.9 95.8, 490.9 92.9 M 496.2 97.7 Q 498.0 97.7, 498.9 96.5 Q 499.9 95.3, 499.9 92.9 Q 499.9 90.6, 498.9 89.5 Q 498.0 88.3, 496.2 88.3 Q 494.4 88.3, 493.5 89.5 Q 492.5 90.6, 492.5 92.9 Q 492.5 95.3, 493.5 96.5 Q 494.4 97.7, 496.2 97.7 " fill="#FF0000"/>
<path class="atom-2" d="M 503.4 87.1 L 504.9 87.1 L 504.9 92.1 L 510.9 92.1 L 510.9 87.1 L 512.5 87.1 L 512.5 98.8 L 510.9 98.8 L 510.9 93.4 L 504.9 93.4 L 504.9 98.8 L 503.4 98.8 L 503.4 87.1 " fill="#FF0000"/>
<path class="atom-3" d="M 537.5 120.4 Q 537.5 117.6, 538.9 116.0 Q 540.3 114.4, 542.9 114.4 Q 545.4 114.4, 546.8 116.0 Q 548.2 117.6, 548.2 120.4 Q 548.2 123.2, 546.8 124.8 Q 545.4 126.4, 542.9 126.4 Q 540.3 126.4, 538.9 124.8 Q 537.5 123.2, 537.5 120.4 M 542.9 125.1 Q 544.6 125.1, 545.6 123.9 Q 546.6 122.7, 546.6 120.4 Q 546.6 118.1, 545.6 116.9 Q 544.6 115.8, 542.9 115.8 Q 541.1 115.8, 540.1 116.9 Q 539.2 118.1, 539.2 120.4 Q 539.2 122.7, 540.1 123.9 Q 541.1 125.1, 542.9 125.1 " fill="#FF0000"/>
<path class="atom-5" d="M 537.5 191.6 Q 537.5 188.8, 538.9 187.3 Q 540.3 185.7, 542.9 185.7 Q 545.4 185.7, 546.8 187.3 Q 548.2 188.8, 548.2 191.6 Q 548.2 194.5, 546.8 196.1 Q 545.4 197.7, 542.9 197.7 Q 540.3 197.7, 538.9 196.1 Q 537.5 194.5, 537.5 191.6 M 542.9 196.4 Q 544.6 196.4, 545.6 195.2 Q 546.6 194.0, 546.6 191.6 Q 546.6 189.3, 545.6 188.2 Q 544.6 187.0, 542.9 187.0 Q 541.1 187.0, 540.1 188.2 Q 539.2 189.3, 539.2 191.6 Q 539.2 194.0, 540.1 195.2 Q 541.1 196.4, 542.9 196.4 " fill="#FF0000"/>
<path class="atom-5" d="M 550.0 185.8 L 551.6 185.8 L 551.6 190.8 L 557.6 190.8 L 557.6 185.8 L 559.1 185.8 L 559.1 197.5 L 557.6 197.5 L 557.6 192.1 L 551.6 192.1 L 551.6 197.5 L 550.0 197.5 L 550.0 185.8 " fill="#FF0000"/>
<path class="atom-10" d="M 340.9 150.2 L 342.4 150.2 L 342.4 155.2 L 348.4 155.2 L 348.4 150.2 L 350.0 150.2 L 350.0 161.9 L 348.4 161.9 L 348.4 156.5 L 342.4 156.5 L 342.4 161.9 L 340.9 161.9 L 340.9 150.2 " fill="#FF0000"/>
<path class="atom-10" d="M 352.4 156.0 Q 352.4 153.2, 353.7 151.6 Q 355.1 150.1, 357.7 150.1 Q 360.3 150.1, 361.7 151.6 Q 363.1 153.2, 363.1 156.0 Q 363.1 158.8, 361.7 160.4 Q 360.3 162.0, 357.7 162.0 Q 355.1 162.0, 353.7 160.4 Q 352.4 158.8, 352.4 156.0 M 357.7 160.7 Q 359.5 160.7, 360.4 159.5 Q 361.4 158.3, 361.4 156.0 Q 361.4 153.7, 360.4 152.6 Q 359.5 151.4, 357.7 151.4 Q 355.9 151.4, 355.0 152.5 Q 354.0 153.7, 354.0 156.0 Q 354.0 158.4, 355.0 159.5 Q 355.9 160.7, 357.7 160.7 " fill="#FF0000"/>
<path class="legend" d="M 420.4 281.0 Q 422.4 281.0, 423.3 281.9 Q 424.3 282.8, 424.3 284.4 Q 424.3 285.9, 423.3 286.8 Q 422.3 287.7, 420.4 287.7 L 418.6 287.7 L 418.6 292.4 L 417.1 292.4 L 417.1 281.0 L 420.4 281.0 M 420.4 286.4 Q 421.5 286.4, 422.1 285.9 Q 422.7 285.4, 422.7 284.4 Q 422.7 283.4, 422.1 282.9 Q 421.5 282.3, 420.4 282.3 L 418.6 282.3 L 418.6 286.4 L 420.4 286.4 " fill="#000000"/>
<path class="legend" d="M 426.9 284.1 L 427.1 285.3 Q 427.9 284.0, 429.3 284.0 Q 429.8 284.0, 430.4 284.2 L 430.1 285.5 Q 429.5 285.3, 429.1 285.3 Q 428.4 285.3, 428.0 285.6 Q 427.5 285.9, 427.2 286.5 L 427.2 292.4 L 425.7 292.4 L 425.7 284.1 L 426.9 284.1 " fill="#000000"/>
<path class="legend" d="M 431.2 288.2 Q 431.2 286.2, 432.3 285.1 Q 433.3 284.0, 435.1 284.0 Q 436.9 284.0, 437.7 285.1 Q 438.5 286.2, 438.5 288.2 L 438.5 288.5 L 432.8 288.5 Q 432.8 289.8, 433.4 290.6 Q 434.1 291.3, 435.2 291.3 Q 435.9 291.3, 436.5 291.2 Q 437.1 291.0, 437.8 290.7 L 438.2 291.7 Q 437.4 292.1, 436.7 292.3 Q 435.9 292.5, 435.1 292.5 Q 433.3 292.5, 432.3 291.4 Q 431.2 290.3, 431.2 288.2 M 435.1 285.2 Q 434.2 285.2, 433.6 285.7 Q 433.0 286.3, 432.8 287.3 L 436.9 287.3 Q 436.8 286.2, 436.4 285.7 Q 435.9 285.2, 435.1 285.2 " fill="#000000"/>
<path class="legend" d="M 447.2 280.2 L 447.2 292.4 L 446.0 292.4 L 445.8 291.3 Q 444.9 292.5, 443.4 292.5 Q 441.6 292.5, 440.7 291.4 Q 439.7 290.4, 439.7 288.4 Q 439.7 286.3, 440.9 285.2 Q 442.0 284.0, 444.0 284.0 Q 444.8 284.0, 445.7 284.2 L 445.7 280.2 L 447.2 280.2 M 443.5 291.3 Q 444.3 291.3, 444.9 290.9 Q 445.5 290.4, 445.7 289.6 L 445.7 285.4 Q 444.9 285.2, 444.0 285.2 Q 442.7 285.2, 442.0 286.0 Q 441.3 286.9, 441.3 288.4 Q 441.3 289.8, 441.8 290.6 Q 442.4 291.3, 443.5 291.3 " fill="#000000"/>
<path class="legend" d="M 449.1 281.0 L 450.6 281.0 L 450.6 282.4 L 449.1 282.4 L 449.1 281.0 M 449.1 284.1 L 450.6 284.1 L 450.6 292.4 L 449.1 292.4 L 449.1 284.1 " fill="#000000"/>
<path class="legend" d="M 452.6 288.2 Q 452.6 286.3, 453.6 285.1 Q 454.6 284.0, 456.5 284.0 Q 458.4 284.0, 459.4 285.4 L 458.4 286.1 Q 458.0 285.7, 457.5 285.4 Q 457.1 285.2, 456.5 285.2 Q 455.4 285.2, 454.7 286.0 Q 454.1 286.7, 454.1 288.2 Q 454.1 289.8, 454.8 290.5 Q 455.4 291.3, 456.6 291.3 Q 457.3 291.3, 457.7 291.2 Q 458.2 291.0, 458.8 290.8 L 459.2 291.8 Q 458.0 292.5, 456.5 292.5 Q 454.6 292.5, 453.6 291.3 Q 452.6 290.2, 452.6 288.2 " fill="#000000"/>
<path class="legend" d="M 460.4 285.3 L 460.4 284.1 L 461.9 284.1 L 462.2 281.7 L 463.3 281.7 L 463.3 284.1 L 465.8 284.1 L 465.8 285.3 L 463.3 285.3 L 463.3 289.8 Q 463.3 291.3, 464.5 291.3 Q 465.0 291.3, 465.7 291.0 L 465.9 292.1 Q 465.1 292.5, 464.2 292.5 Q 463.2 292.5, 462.5 291.8 Q 461.8 291.2, 461.8 289.9 L 461.8 285.3 L 460.4 285.3 " fill="#000000"/>
<path class="legend" d="M 467.0 288.2 Q 467.0 286.2, 468.0 285.1 Q 469.0 284.0, 470.8 284.0 Q 472.6 284.0, 473.4 285.1 Q 474.2 286.2, 474.2 288.2 L 474.2 288.5 L 468.5 288.5 Q 468.5 289.8, 469.1 290.6 Q 469.8 291.3, 470.9 291.3 Q 471.6 291.3, 472.2 291.2 Q 472.8 291.0, 473.5 290.7 L 473.9 291.7 Q 473.1 292.1, 472.4 292.3 Q 471.6 292.5, 470.9 292.5 Q 469.0 292.5, 468.0 291.4 Q 467.0 290.3, 467.0 288.2 M 470.8 285.2 Q 469.9 285.2, 469.3 285.7 Q 468.7 286.3, 468.6 287.3 L 472.7 287.3 Q 472.5 286.2, 472.1 285.7 Q 471.6 285.2, 470.8 285.2 " fill="#000000"/>
<path class="legend" d="M 482.9 280.2 L 482.9 292.4 L 481.7 292.4 L 481.5 291.3 Q 480.6 292.5, 479.1 292.5 Q 477.4 292.5, 476.4 291.4 Q 475.5 290.4, 475.5 288.4 Q 475.5 286.3, 476.6 285.2 Q 477.7 284.0, 479.7 284.0 Q 480.5 284.0, 481.4 284.2 L 481.4 280.2 L 482.9 280.2 M 479.2 291.3 Q 480.0 291.3, 480.6 290.9 Q 481.2 290.4, 481.4 289.6 L 481.4 285.4 Q 480.6 285.2, 479.7 285.2 Q 478.4 285.2, 477.7 286.0 Q 477.0 286.9, 477.0 288.4 Q 477.0 289.8, 477.6 290.6 Q 478.1 291.3, 479.2 291.3 " fill="#000000"/>
<path class="bond-0 atom-0 atom-1" d="M 613.6,89.2 L 641.4,119.5" style="fill:none;fill-rule:evenodd;stroke:#000000;stroke-width:2.0px;stroke-linecap:butt;stroke-linejoin:miter;stroke-opacity:1"/>
<path class="bond-1 atom-1 atom-2" d="M 641.4,119.5 L 658.2,115.8" style="fill:none;fill-rule:evenodd;stroke:#000000;stroke-width:2.0px;stroke-linecap:butt;stroke-linejoin:miter;stroke-opacity:1"/>
<path class="bond-1 atom-1 atom-2" d="M 658.2,115.8 L 674.9,112.1" style="fill:none;fill-rule:evenodd;stroke:#FF0000;stroke-width:2.0px;stroke-linecap:butt;stroke-linejoin:miter;stroke-opacity:1"/>
<path class="bond-2 atom-2 atom-3" d="M 688.3,117.9 L 698.9,129.4" style="fill:none;fill-rule:evenodd;stroke:#FF0000;stroke-width:2.0px;stroke-linecap:butt;stroke-linejoin:miter;stroke-opacity:1"/>
<path class="bond-2 atom-2 atom-3" d="M 698.9,129.4 L 709.4,140.9" style="fill:none;fill-rule:evenodd;stroke:#000000;stroke-width:2.0px;stroke-linecap:butt;stroke-linejoin:miter;stroke-opacity:1"/>
<path class="bond-3 atom-3 atom-4" d="M 707.0,138.3 L 701.7,155.1" style="fill:none;fill-rule:evenodd;stroke:#000000;stroke-width:2.0px;stroke-linecap:butt;stroke-linejoin:miter;stroke-opacity:1"/>
<path class="bond-3 atom-3 atom-4" d="M 701.7,155.1 L 696.4,172.0" style="fill:none;fill-rule:evenodd;stroke:#FF0000;stroke-width:2.0px;stroke-linecap:butt;stroke-linejoin:miter;stroke-opacity:1"/>
<path class="bond-3 atom-3 atom-4" d="M 712.9,140.1 L 707.6,157.0" style="fill:none;fill-rule:evenodd;stroke:#000000;stroke-width:2.0px;stroke-linecap:butt;stroke-linejoin:miter;stroke-opacity:1"/>
<path class="bond-3 atom-3 atom-4" d="M 707.6,157.0 L 702.3,173.8" style="fill:none;fill-rule:evenodd;stroke:#FF0000;stroke-width:2.0px;stroke-linecap:butt;stroke-linejoin:miter;stroke-opacity:1"/>
<path class="bond-4 atom-5 atom-3" d="M 749.6,132.0 L 708.3,144.4 L 709.4,140.9 Z" style="fill:#000000;fill-rule:evenodd;fill-opacity:1;stroke:#000000;stroke-width:0.5px;stroke-linecap:butt;stroke-linejoin:miter;stroke-opacity:1;"/>
<path class="bond-4 atom-5 atom-3" d="M 749.6,132.0 L 709.4,140.9 L 706.9,138.1 Z" style="fill:#000000;fill-rule:evenodd;fill-opacity:1;stroke:#000000;stroke-width:0.5px;stroke-linecap:butt;stroke-linejoin:miter;stroke-opacity:1;"/>
<path class="bond-5 atom-5 atom-6" d="M 749.6,132.0 L 761.9,92.7" style="fill:none;fill-rule:evenodd;stroke:#000000;stroke-width:2.0px;stroke-linecap:butt;stroke-linejoin:miter;stroke-opacity:1"/>
<path class="bond-6 atom-6 atom-7" d="M 761.9,92.7 L 802.1,83.8" style="fill:none;fill-rule:evenodd;stroke:#000000;stroke-width:2.0px;stroke-linecap:butt;stroke-linejoin:miter;stroke-opacity:1"/>
<path class="bond-7 atom-7 atom-8" d="M 802.1,83.8 L 829.9,114.1" style="fill:none;fill-rule:evenodd;stroke:#000000;stroke-width:2.0px;stroke-linecap:butt;stroke-linejoin:miter;stroke-opacity:1"/>
<path class="bond-8 atom-8 atom-9" d="M 833.4,113.0 L 833.6,113.7" style="fill:none;fill-rule:evenodd;stroke:#000000;stroke-width:1.0px;stroke-linecap:butt;stroke-linejoin:miter;stroke-opacity:1"/>
<path class="bond-8 atom-8 atom-9" d="M 836.9,111.9 L 837.2,113.2" style="fill:none;fill-rule:evenodd;stroke:#000000;stroke-width:1.0px;stroke-linecap:butt;stroke-linejoin:miter;stroke-opacity:1"/>
<path class="bond-8 atom-8 atom-9" d="M 840.4,110.7 L 840.8,112.7" style="fill:none;fill-rule:evenodd;stroke:#000000;stroke-width:1.0px;stroke-linecap:butt;stroke-linejoin:miter;stroke-opacity:1"/>
<path class="bond-8 atom-8 atom-9" d="M 843.9,109.6 L 844.5,112.3" style="fill:none;fill-rule:evenodd;stroke:#000000;stroke-width:1.0px;stroke-linecap:butt;stroke-linejoin:miter;stroke-opacity:1"/>
<path class="bond-8 atom-8 atom-9" d="M 847.4,108.5 L 848.1,111.8" style="fill:none;fill-rule:evenodd;stroke:#FF0000;stroke-width:1.0px;stroke-linecap:butt;stroke-linejoin:miter;stroke-opacity:1"/>
<path class="bond-8 atom-8 atom-9" d="M 850.9,107.4 L 851.8,111.4" style="fill:none;fill-rule:evenodd;stroke:#FF0000;stroke-width:1.0px;stroke-linecap:butt;stroke-linejoin:miter;stroke-opacity:1"/>
<path class="bond-8 atom-8 atom-9" d="M 854.4,106.2 L 855.4,110.9" style="fill:none;fill-rule:evenodd;stroke:#FF0000;stroke-width:1.0px;stroke-linecap:butt;stroke-linejoin:miter;stroke-opacity:1"/>
<path class="bond-8 atom-8 atom-9" d="M 857.9,105.1 L 859.0,110.5" style="fill:none;fill-rule:evenodd;stroke:#FF0000;stroke-width:1.0px;stroke-linecap:butt;stroke-linejoin:miter;stroke-opacity:1"/>
<path class="bond-8 atom-8 atom-9" d="M 861.4,104.0 L 862.7,110.0" style="fill:none;fill-rule:evenodd;stroke:#FF0000;stroke-width:1.0px;stroke-linecap:butt;stroke-linejoin:miter;stroke-opacity:1"/>
<path class="bond-9 atom-8 atom-10" d="M 829.9,114.1 L 817.6,153.4" style="fill:none;fill-rule:evenodd;stroke:#000000;stroke-width:2.0px;stroke-linecap:butt;stroke-linejoin:miter;stroke-opacity:1"/>
<path class="bond-10 atom-10 atom-11" d="M 817.6,153.4 L 777.4,162.3" style="fill:none;fill-rule:evenodd;stroke:#000000;stroke-width:2.0px;stroke-linecap:butt;stroke-linejoin:miter;stroke-opacity:1"/>
<path class="bond-11 atom-11 atom-5" d="M 777.4,162.3 L 749.6,132.0" style="fill:none;fill-rule:evenodd;stroke:#000000;stroke-width:2.0px;stroke-linecap:butt;stroke-linejoin:miter;stroke-opacity:1"/>
<path d="M 640.1,118.0 L 641.4,119.5 L 642.3,119.3" style="fill:none;stroke:#000000;stroke-width:2.0px;stroke-linecap:butt;stroke-linejoin:miter;stroke-opacity:1;"/>
<path d="M 750.2,130.0 L 749.6,132.0 L 751.0,133.5" style="fill:none;stroke:#000000;stroke-width:2.0px;stroke-linecap:butt;stroke-linejoin:miter;stroke-opacity:1;"/>
<path d="M 761.3,94.7 L 761.9,92.7 L 764.0,92.3" style="fill:none;stroke:#000000;stroke-width:2.0px;stroke-linecap:butt;stroke-linejoin:miter;stroke-opacity:1;"/>
<path d="M 800.1,84.2 L 802.1,83.8 L 803.5,85.3" style="fill:none;stroke:#000000;stroke-width:2.0px;stroke-linecap:butt;stroke-linejoin:miter;stroke-opacity:1;"/>
<path d="M 828.5,112.6 L 829.9,114.1 L 829.3,116.1" style="fill:none;stroke:#000000;stroke-width:2.0px;stroke-linecap:butt;stroke-linejoin:miter;stroke-opacity:1;"/>
<path d="M 818.2,151.4 L 817.6,153.4 L 815.6,153.8" style="fill:none;stroke:#000000;stroke-width:2.0px;stroke-linecap:butt;stroke-linejoin:miter;stroke-opacity:1;"/>
<path d="M 779.4,161.8 L 777.4,162.3 L 776.0,160.8" style="fill:none;stroke:#000000;stroke-width:2.0px;stroke-linecap:butt;stroke-linejoin:miter;stroke-opacity:1;"/>
<path class="atom-2" d="M 676.3 110.6 Q 676.3 107.8, 677.6 106.2 Q 679.0 104.7, 681.6 104.7 Q 684.2 104.7, 685.6 106.2 Q 687.0 107.8, 687.0 110.6 Q 687.0 113.4, 685.6 115.0 Q 684.2 116.6, 681.6 116.6 Q 679.0 116.6, 677.6 115.0 Q 676.3 113.4, 676.3 110.6 M 681.6 115.3 Q 683.4 115.3, 684.3 114.1 Q 685.3 112.9, 685.3 110.6 Q 685.3 108.3, 684.3 107.2 Q 683.4 106.0, 681.6 106.0 Q 679.8 106.0, 678.9 107.1 Q 677.9 108.3, 677.9 110.6 Q 677.9 112.9, 678.9 114.1 Q 679.8 115.3, 681.6 115.3 " fill="#FF0000"/>
<path class="atom-4" d="M 691.7 180.2 Q 691.7 177.4, 693.1 175.8 Q 694.5 174.2, 697.1 174.2 Q 699.6 174.2, 701.0 175.8 Q 702.4 177.4, 702.4 180.2 Q 702.4 183.0, 701.0 184.6 Q 699.6 186.2, 697.1 186.2 Q 694.5 186.2, 693.1 184.6 Q 691.7 183.0, 691.7 180.2 M 697.1 184.9 Q 698.8 184.9, 699.8 183.7 Q 700.8 182.5, 700.8 180.2 Q 700.8 177.9, 699.8 176.7 Q 698.8 175.6, 697.1 175.6 Q 695.3 175.6, 694.3 176.7 Q 693.4 177.9, 693.4 180.2 Q 693.4 182.5, 694.3 183.7 Q 695.3 184.9, 697.1 184.9 " fill="#FF0000"/>
<path class="atom-9" d="M 864.7 105.2 Q 864.7 102.4, 866.1 100.9 Q 867.5 99.3, 870.1 99.3 Q 872.7 99.3, 874.0 100.9 Q 875.4 102.4, 875.4 105.2 Q 875.4 108.1, 874.0 109.7 Q 872.6 111.3, 870.1 111.3 Q 867.5 111.3, 866.1 109.7 Q 864.7 108.1, 864.7 105.2 M 870.1 110.0 Q 871.9 110.0, 872.8 108.8 Q 873.8 107.6, 873.8 105.2 Q 873.8 102.9, 872.8 101.8 Q 871.9 100.6, 870.1 100.6 Q 868.3 100.6, 867.3 101.8 Q 866.4 102.9, 866.4 105.2 Q 866.4 107.6, 867.3 108.8 Q 868.3 110.0, 870.1 110.0 " fill="#FF0000"/>
<path class="atom-9" d="M 877.2 99.4 L 878.8 99.4 L 878.8 104.4 L 884.8 104.4 L 884.8 99.4 L 886.4 99.4 L 886.4 111.1 L 884.8 111.1 L 884.8 105.7 L 878.8 105.7 L 878.8 111.1 L 877.2 111.1 L 877.2 99.4 " fill="#FF0000"/>
<path class="legend" d="M 732.3 277.2 L 733.8 277.2 L 733.8 288.6 L 732.3 288.6 L 732.3 277.2 " fill="#000000"/>
<path class="legend" d="M 740.0 280.2 Q 741.4 280.2, 742.0 281.0 Q 742.7 281.7, 742.7 283.1 L 742.7 288.6 L 741.2 288.6 L 741.2 283.3 Q 741.2 282.3, 740.9 281.8 Q 740.5 281.4, 739.7 281.4 Q 738.9 281.4, 738.3 281.7 Q 737.7 282.1, 737.3 282.7 L 737.3 288.6 L 735.8 288.6 L 735.8 280.4 L 737.0 280.4 L 737.2 281.5 Q 738.3 280.2, 740.0 280.2 " fill="#000000"/>
<path class="legend" d="M 748.4 280.2 Q 750.1 280.2, 751.0 281.3 Q 752.0 282.3, 752.0 284.3 Q 752.0 286.4, 750.9 287.6 Q 749.7 288.7, 747.8 288.7 Q 746.8 288.7, 746.1 288.5 L 746.1 292.5 L 744.6 292.5 L 744.6 280.4 L 745.8 280.4 L 746.0 281.3 Q 746.4 280.8, 747.0 280.5 Q 747.6 280.2, 748.4 280.2 M 747.8 287.5 Q 749.0 287.5, 749.7 286.7 Q 750.5 285.8, 750.5 284.3 Q 750.5 282.9, 749.9 282.2 Q 749.3 281.4, 748.3 281.4 Q 747.5 281.4, 746.9 281.8 Q 746.3 282.3, 746.1 283.0 L 746.1 287.3 Q 746.9 287.5, 747.8 287.5 " fill="#000000"/>
<path class="legend" d="M 760.3 280.4 L 760.3 288.6 L 759.0 288.6 L 758.9 287.4 Q 757.8 288.7, 756.1 288.7 Q 754.7 288.7, 754.0 288.0 Q 753.3 287.2, 753.3 285.8 L 753.3 280.4 L 754.8 280.4 L 754.8 285.7 Q 754.8 286.7, 755.2 287.1 Q 755.5 287.5, 756.4 287.5 Q 757.1 287.5, 757.7 287.2 Q 758.4 286.9, 758.8 286.2 L 758.8 280.4 L 760.3 280.4 " fill="#000000"/>
<path class="legend" d="M 762.2 281.5 L 762.2 280.4 L 763.7 280.4 L 764.0 278.0 L 765.1 278.0 L 765.1 280.4 L 767.6 280.4 L 767.6 281.5 L 765.1 281.5 L 765.1 286.1 Q 765.1 287.5, 766.3 287.5 Q 766.8 287.5, 767.5 287.3 L 767.7 288.3 Q 766.9 288.7, 766.0 288.7 Q 765.0 288.7, 764.3 288.0 Q 763.6 287.4, 763.6 286.1 L 763.6 281.5 L 762.2 281.5 " fill="#000000"/>
</svg>