<svg xmlns="http://www.w3.org/2000/svg" xmlns:rdkit="http://www.rdkit.org/xml" xmlns:xlink="http://www.w3.org/1999/xlink" version="1.1" baseProfile="full" xml:space="preserve" width="900px" height="300px" viewBox="0 0 900 300">
<!-- END OF HEADER -->
<rect style="opacity:1.0;fill:#FFFFFF;stroke:none" width="900.0" height="300.0" x="0.0" y="0.0"> </rect>
<path class="bond-0 atom-0 atom-1" d="M 222.5,191.1 L 207.7,187.1" style="fill:none;fill-rule:evenodd;stroke:#FF0000;stroke-width:2.0px;stroke-linecap:butt;stroke-linejoin:miter;stroke-opacity:1"/>
<path class="bond-0 atom-0 atom-1" d="M 207.7,187.1 L 193.0,183.1" style="fill:none;fill-rule:evenodd;stroke:#000000;stroke-width:2.0px;stroke-linecap:butt;stroke-linejoin:miter;stroke-opacity:1"/>
<path class="bond-0 atom-0 atom-1" d="M 223.9,186.1 L 209.1,182.1" style="fill:none;fill-rule:evenodd;stroke:#FF0000;stroke-width:2.0px;stroke-linecap:butt;stroke-linejoin:miter;stroke-opacity:1"/>
<path class="bond-0 atom-0 atom-1" d="M 209.1,182.1 L 194.3,178.1" style="fill:none;fill-rule:evenodd;stroke:#000000;stroke-width:2.0px;stroke-linecap:butt;stroke-linejoin:miter;stroke-opacity:1"/>
<path class="bond-1 atom-1 atom-2" d="M 195.5,181.1 L 183.1,148.9" style="fill:none;fill-rule:evenodd;stroke:#000000;stroke-width:2.0px;stroke-linecap:butt;stroke-linejoin:miter;stroke-opacity:1"/>
<path class="bond-2 atom-2 atom-3" d="M 183.1,148.9 L 148.6,150.6" style="fill:none;fill-rule:evenodd;stroke:#000000;stroke-width:2.0px;stroke-linecap:butt;stroke-linejoin:miter;stroke-opacity:1"/>
<path class="bond-3 atom-3 atom-4" d="M 148.6,150.6 L 139.7,184.0" style="fill:none;fill-rule:evenodd;stroke:#000000;stroke-width:2.0px;stroke-linecap:butt;stroke-linejoin:miter;stroke-opacity:1"/>
<path class="bond-4 atom-4 atom-5" d="M 139.7,184.0 L 107.4,196.3" style="fill:none;fill-rule:evenodd;stroke:#000000;stroke-width:2.0px;stroke-linecap:butt;stroke-linejoin:miter;stroke-opacity:1"/>
<path class="bond-5 atom-5 atom-6" d="M 107.4,196.3 L 96.8,187.7" style="fill:none;fill-rule:evenodd;stroke:#000000;stroke-width:2.0px;stroke-linecap:butt;stroke-linejoin:miter;stroke-opacity:1"/>
<path class="bond-5 atom-5 atom-6" d="M 96.8,187.7 L 86.2,179.1" style="fill:none;fill-rule:evenodd;stroke:#FF0000;stroke-width:2.0px;stroke-linecap:butt;stroke-linejoin:miter;stroke-opacity:1"/>
<path class="bond-6 atom-4 atom-7" d="M 139.7,184.0 L 151.7,191.8" style="fill:none;fill-rule:evenodd;stroke:#000000;stroke-width:2.0px;stroke-linecap:butt;stroke-linejoin:miter;stroke-opacity:1"/>
<path class="bond-6 atom-4 atom-7" d="M 151.7,191.8 L 163.8,199.7" style="fill:none;fill-rule:evenodd;stroke:#0000FF;stroke-width:2.0px;stroke-linecap:butt;stroke-linejoin:miter;stroke-opacity:1"/>
<path class="bond-7 atom-8 atom-9" d="M 223.4,93.9 L 211.1,93.9" style="fill:none;fill-rule:evenodd;stroke:#FF0000;stroke-width:2.0px;stroke-linecap:butt;stroke-linejoin:miter;stroke-opacity:1"/>
<path class="bond-7 atom-8 atom-9" d="M 211.1,93.9 L 198.8,93.9" style="fill:none;fill-rule:evenodd;stroke:#CCCC00;stroke-width:2.0px;stroke-linecap:butt;stroke-linejoin:miter;stroke-opacity:1"/>
<path class="bond-7 atom-8 atom-9" d="M 223.4,88.7 L 211.1,88.7" style="fill:none;fill-rule:evenodd;stroke:#FF0000;stroke-width:2.0px;stroke-linecap:butt;stroke-linejoin:miter;stroke-opacity:1"/>
<path class="bond-7 atom-8 atom-9" d="M 211.1,88.7 L 198.8,88.7" style="fill:none;fill-rule:evenodd;stroke:#CCCC00;stroke-width:2.0px;stroke-linecap:butt;stroke-linejoin:miter;stroke-opacity:1"/>
<path class="bond-8 atom-9 atom-10" d="M 191.9,97.6 L 191.9,108.7" style="fill:none;fill-rule:evenodd;stroke:#CCCC00;stroke-width:2.0px;stroke-linecap:butt;stroke-linejoin:miter;stroke-opacity:1"/>
<path class="bond-8 atom-9 atom-10" d="M 191.9,108.7 L 191.9,119.8" style="fill:none;fill-rule:evenodd;stroke:#FF0000;stroke-width:2.0px;stroke-linecap:butt;stroke-linejoin:miter;stroke-opacity:1"/>
<path class="bond-8 atom-9 atom-10" d="M 197.1,97.6 L 197.1,108.7" style="fill:none;fill-rule:evenodd;stroke:#CCCC00;stroke-width:2.0px;stroke-linecap:butt;stroke-linejoin:miter;stroke-opacity:1"/>
<path class="bond-8 atom-9 atom-10" d="M 197.1,108.7 L 197.1,119.8" style="fill:none;fill-rule:evenodd;stroke:#FF0000;stroke-width:2.0px;stroke-linecap:butt;stroke-linejoin:miter;stroke-opacity:1"/>
<path class="bond-9 atom-9 atom-11" d="M 194.5,85.3 L 194.5,74.3" style="fill:none;fill-rule:evenodd;stroke:#CCCC00;stroke-width:2.0px;stroke-linecap:butt;stroke-linejoin:miter;stroke-opacity:1"/>
<path class="bond-9 atom-9 atom-11" d="M 194.5,74.3 L 194.5,63.3" style="fill:none;fill-rule:evenodd;stroke:#00CC00;stroke-width:2.0px;stroke-linecap:butt;stroke-linejoin:miter;stroke-opacity:1"/>
<path class="bond-10 atom-9 atom-12" d="M 190.3,91.3 L 175.1,91.3" style="fill:none;fill-rule:evenodd;stroke:#CCCC00;stroke-width:2.0px;stroke-linecap:butt;stroke-linejoin:miter;stroke-opacity:1"/>
<path class="bond-10 atom-9 atom-12" d="M 175.1,91.3 L 160.0,91.3" style="fill:none;fill-rule:evenodd;stroke:#000000;stroke-width:2.0px;stroke-linecap:butt;stroke-linejoin:miter;stroke-opacity:1"/>
<path class="bond-11 atom-12 atom-13" d="M 160.0,91.3 L 142.7,121.2" style="fill:none;fill-rule:evenodd;stroke:#000000;stroke-width:2.0px;stroke-linecap:butt;stroke-linejoin:miter;stroke-opacity:1"/>
<path class="bond-11 atom-12 atom-13" d="M 154.0,91.3 L 139.7,116.0" style="fill:none;fill-rule:evenodd;stroke:#000000;stroke-width:2.0px;stroke-linecap:butt;stroke-linejoin:miter;stroke-opacity:1"/>
<path class="bond-12 atom-13 atom-14" d="M 142.7,121.2 L 108.2,121.2" style="fill:none;fill-rule:evenodd;stroke:#000000;stroke-width:2.0px;stroke-linecap:butt;stroke-linejoin:miter;stroke-opacity:1"/>
<path class="bond-13 atom-14 atom-15" d="M 108.2,121.2 L 90.9,91.3" style="fill:none;fill-rule:evenodd;stroke:#000000;stroke-width:2.0px;stroke-linecap:butt;stroke-linejoin:miter;stroke-opacity:1"/>
<path class="bond-13 atom-14 atom-15" d="M 111.2,116.0 L 96.9,91.3" style="fill:none;fill-rule:evenodd;stroke:#000000;stroke-width:2.0px;stroke-linecap:butt;stroke-linejoin:miter;stroke-opacity:1"/>
<path class="bond-14 atom-15 atom-16" d="M 90.9,91.3 L 108.2,61.4" style="fill:none;fill-rule:evenodd;stroke:#000000;stroke-width:2.0px;stroke-linecap:butt;stroke-linejoin:miter;stroke-opacity:1"/>
<path class="bond-15 atom-16 atom-17" d="M 108.2,61.4 L 142.7,61.4" style="fill:none;fill-rule:evenodd;stroke:#000000;stroke-width:2.0px;stroke-linecap:butt;stroke-linejoin:miter;stroke-opacity:1"/>
<path class="bond-15 atom-16 atom-17" d="M 111.2,66.6 L 139.7,66.6" style="fill:none;fill-rule:evenodd;stroke:#000000;stroke-width:2.0px;stroke-linecap:butt;stroke-linejoin:miter;stroke-opacity:1"/>
<path class="bond-16 atom-7 atom-1" d="M 173.4,198.9 L 184.5,190.0" style="fill:none;fill-rule:evenodd;stroke:#0000FF;stroke-width:2.0px;stroke-linecap:butt;stroke-linejoin:miter;stroke-opacity:1"/>
<path class="bond-16 atom-7 atom-1" d="M 184.5,190.0 L 195.5,181.1" style="fill:none;fill-rule:evenodd;stroke:#000000;stroke-width:2.0px;stroke-linecap:butt;stroke-linejoin:miter;stroke-opacity:1"/>
<path class="bond-17 atom-17 atom-12" d="M 142.7,61.4 L 160.0,91.3" style="fill:none;fill-rule:evenodd;stroke:#000000;stroke-width:2.0px;stroke-linecap:butt;stroke-linejoin:miter;stroke-opacity:1"/>
<path d="M 194.9,179.5 L 195.5,181.1 L 194.9,181.6" style="fill:none;stroke:#000000;stroke-width:2.0px;stroke-linecap:butt;stroke-linejoin:miter;stroke-opacity:1;"/>
<path d="M 183.8,150.5 L 183.1,148.9 L 181.4,149.0" style="fill:none;stroke:#000000;stroke-width:2.0px;stroke-linecap:butt;stroke-linejoin:miter;stroke-opacity:1;"/>
<path d="M 150.4,150.5 L 148.6,150.6 L 148.2,152.3" style="fill:none;stroke:#000000;stroke-width:2.0px;stroke-linecap:butt;stroke-linejoin:miter;stroke-opacity:1;"/>
<path d="M 109.0,195.7 L 107.4,196.3 L 106.9,195.9" style="fill:none;stroke:#000000;stroke-width:2.0px;stroke-linecap:butt;stroke-linejoin:miter;stroke-opacity:1;"/>
<path d="M 143.6,119.7 L 142.7,121.2 L 141.0,121.2" style="fill:none;stroke:#000000;stroke-width:2.0px;stroke-linecap:butt;stroke-linejoin:miter;stroke-opacity:1;"/>
<path d="M 109.9,121.2 L 108.2,121.2 L 107.3,119.7" style="fill:none;stroke:#000000;stroke-width:2.0px;stroke-linecap:butt;stroke-linejoin:miter;stroke-opacity:1;"/>
<path d="M 91.8,92.8 L 90.9,91.3 L 91.8,89.8" style="fill:none;stroke:#000000;stroke-width:2.0px;stroke-linecap:butt;stroke-linejoin:miter;stroke-opacity:1;"/>
<path d="M 107.3,62.9 L 108.2,61.4 L 109.9,61.4" style="fill:none;stroke:#000000;stroke-width:2.0px;stroke-linecap:butt;stroke-linejoin:miter;stroke-opacity:1;"/>
<path d="M 141.0,61.4 L 142.7,61.4 L 143.6,62.9" style="fill:none;stroke:#000000;stroke-width:2.0px;stroke-linecap:butt;stroke-linejoin:miter;stroke-opacity:1;"/>
<path class="atom-0" d="M 224.3 190.1 Q 224.3 187.8, 225.5 186.5 Q 226.6 185.2, 228.8 185.2 Q 231.0 185.2, 232.1 186.5 Q 233.3 187.8, 233.3 190.1 Q 233.3 192.5, 232.1 193.9 Q 231.0 195.2, 228.8 195.2 Q 226.7 195.2, 225.5 193.9 Q 224.3 192.5, 224.3 190.1 M 228.8 194.1 Q 230.3 194.1, 231.1 193.1 Q 231.9 192.1, 231.9 190.1 Q 231.9 188.2, 231.1 187.2 Q 230.3 186.3, 228.8 186.3 Q 227.3 186.3, 226.5 187.2 Q 225.7 188.2, 225.7 190.1 Q 225.7 192.1, 226.5 193.1 Q 227.3 194.1, 228.8 194.1 " fill="#FF0000"/>
<path class="atom-6" d="M 66.4 169.7 L 67.8 169.7 L 67.8 173.9 L 72.8 173.9 L 72.8 169.7 L 74.1 169.7 L 74.1 179.5 L 72.8 179.5 L 72.8 175.0 L 67.8 175.0 L 67.8 179.5 L 66.4 179.5 L 66.4 169.7 " fill="#FF0000"/>
<path class="atom-6" d="M 76.1 174.6 Q 76.1 172.2, 77.3 170.9 Q 78.4 169.6, 80.6 169.6 Q 82.8 169.6, 83.9 170.9 Q 85.1 172.2, 85.1 174.6 Q 85.1 176.9, 83.9 178.3 Q 82.7 179.6, 80.6 179.6 Q 78.4 179.6, 77.3 178.3 Q 76.1 177.0, 76.1 174.6 M 80.6 178.5 Q 82.1 178.5, 82.9 177.5 Q 83.7 176.5, 83.7 174.6 Q 83.7 172.6, 82.9 171.7 Q 82.1 170.7, 80.6 170.7 Q 79.1 170.7, 78.3 171.7 Q 77.5 172.6, 77.5 174.6 Q 77.5 176.5, 78.3 177.5 Q 79.1 178.5, 80.6 178.5 " fill="#FF0000"/>
<path class="atom-7" d="M 166.4 197.9 L 169.6 203.1 Q 170.0 203.6, 170.5 204.5 Q 171.0 205.5, 171.0 205.5 L 171.0 197.9 L 172.3 197.9 L 172.3 207.7 L 171.0 207.7 L 167.5 202.0 Q 167.1 201.4, 166.7 200.6 Q 166.3 199.9, 166.2 199.6 L 166.2 207.7 L 164.9 207.7 L 164.9 197.9 L 166.4 197.9 " fill="#0000FF"/>
<path class="atom-7" d="M 164.8 208.7 L 166.1 208.7 L 166.1 212.8 L 171.1 212.8 L 171.1 208.7 L 172.4 208.7 L 172.4 218.5 L 171.1 218.5 L 171.1 214.0 L 166.1 214.0 L 166.1 218.5 L 164.8 218.5 L 164.8 208.7 " fill="#0000FF"/>
<path class="atom-8" d="M 224.6 91.3 Q 224.6 89.0, 225.7 87.7 Q 226.9 86.4, 229.1 86.4 Q 231.2 86.4, 232.4 87.7 Q 233.6 89.0, 233.6 91.3 Q 233.6 93.7, 232.4 95.1 Q 231.2 96.4, 229.1 96.4 Q 226.9 96.4, 225.7 95.1 Q 224.6 93.7, 224.6 91.3 M 229.1 95.3 Q 230.6 95.3, 231.4 94.3 Q 232.2 93.3, 232.2 91.3 Q 232.2 89.4, 231.4 88.4 Q 230.6 87.5, 229.1 87.5 Q 227.6 87.5, 226.8 88.4 Q 226.0 89.4, 226.0 91.3 Q 226.0 93.3, 226.8 94.3 Q 227.6 95.3, 229.1 95.3 " fill="#FF0000"/>
<path class="atom-9" d="M 191.8 94.7 Q 191.9 94.7, 192.3 94.9 Q 192.8 95.1, 193.3 95.2 Q 193.8 95.3, 194.3 95.3 Q 195.2 95.3, 195.8 94.9 Q 196.3 94.4, 196.3 93.6 Q 196.3 93.1, 196.0 92.8 Q 195.8 92.4, 195.3 92.3 Q 194.9 92.1, 194.2 91.9 Q 193.4 91.6, 192.8 91.4 Q 192.3 91.1, 192.0 90.6 Q 191.6 90.1, 191.6 89.2 Q 191.6 88.0, 192.4 87.2 Q 193.3 86.4, 194.9 86.4 Q 196.1 86.4, 197.3 87.0 L 197.0 88.0 Q 195.9 87.6, 195.0 87.6 Q 194.0 87.6, 193.5 88.0 Q 193.0 88.3, 193.0 89.0 Q 193.0 89.5, 193.2 89.9 Q 193.5 90.2, 193.9 90.4 Q 194.3 90.5, 195.0 90.7 Q 195.9 91.0, 196.4 91.3 Q 196.9 91.6, 197.3 92.1 Q 197.7 92.7, 197.7 93.6 Q 197.7 95.0, 196.8 95.7 Q 195.9 96.4, 194.3 96.4 Q 193.5 96.4, 192.8 96.3 Q 192.2 96.1, 191.4 95.8 L 191.8 94.7 " fill="#CCCC00"/>
<path class="atom-10" d="M 190.0 125.9 Q 190.0 123.5, 191.2 122.2 Q 192.4 120.9, 194.5 120.9 Q 196.7 120.9, 197.9 122.2 Q 199.0 123.5, 199.0 125.9 Q 199.0 128.2, 197.8 129.6 Q 196.7 130.9, 194.5 130.9 Q 192.4 130.9, 191.2 129.6 Q 190.0 128.3, 190.0 125.9 M 194.5 129.8 Q 196.0 129.8, 196.8 128.8 Q 197.6 127.8, 197.6 125.9 Q 197.6 124.0, 196.8 123.0 Q 196.0 122.0, 194.5 122.0 Q 193.0 122.0, 192.2 123.0 Q 191.4 123.9, 191.4 125.9 Q 191.4 127.8, 192.2 128.8 Q 193.0 129.8, 194.5 129.8 " fill="#FF0000"/>
<path class="atom-11" d="M 190.8 57.1 Q 190.8 54.7, 191.9 53.4 Q 193.0 52.1, 195.2 52.1 Q 197.2 52.1, 198.3 53.5 L 197.4 54.3 Q 196.6 53.3, 195.2 53.3 Q 193.7 53.3, 192.9 54.3 Q 192.2 55.2, 192.2 57.1 Q 192.2 59.0, 193.0 60.0 Q 193.8 61.0, 195.4 61.0 Q 196.4 61.0, 197.7 60.4 L 198.1 61.4 Q 197.6 61.8, 196.8 61.9 Q 196.0 62.1, 195.2 62.1 Q 193.0 62.1, 191.9 60.8 Q 190.8 59.5, 190.8 57.1 " fill="#00CC00"/>
<path class="atom-11" d="M 199.3 51.5 L 200.6 51.5 L 200.6 62.0 L 199.3 62.0 L 199.3 51.5 " fill="#00CC00"/>
<path class="legend" d="M 130.0 278.4 L 126.5 278.4 L 126.5 277.2 L 134.9 277.2 L 134.9 278.4 L 131.6 278.4 L 131.6 288.5 L 130.0 288.5 L 130.0 278.4 " fill="#000000"/>
<path class="legend" d="M 135.6 286.3 Q 135.6 284.9, 136.6 284.2 Q 137.7 283.5, 139.6 283.5 L 140.8 283.5 L 140.8 283.2 Q 140.8 282.2, 140.4 281.7 Q 140.0 281.3, 138.9 281.3 Q 138.3 281.3, 137.8 281.4 Q 137.3 281.5, 136.5 281.9 L 136.0 280.9 Q 137.5 280.1, 139.0 280.1 Q 140.7 280.1, 141.5 280.9 Q 142.3 281.6, 142.3 283.2 L 142.3 288.5 L 141.2 288.5 Q 141.1 288.4, 141.1 288.2 Q 141.0 287.9, 140.9 287.5 Q 139.8 288.7, 138.3 288.7 Q 137.0 288.7, 136.3 288.0 Q 135.6 287.4, 135.6 286.3 M 137.1 286.2 Q 137.1 286.8, 137.4 287.2 Q 137.8 287.5, 138.5 287.5 Q 139.2 287.5, 139.8 287.2 Q 140.4 286.9, 140.8 286.4 L 140.8 284.6 L 139.7 284.6 Q 138.4 284.6, 137.7 285.0 Q 137.1 285.4, 137.1 286.2 " fill="#000000"/>
<path class="legend" d="M 145.4 280.3 L 145.6 281.4 Q 146.5 280.1, 147.9 280.1 Q 148.3 280.1, 148.9 280.3 L 148.7 281.6 Q 148.0 281.5, 147.6 281.5 Q 147.0 281.5, 146.5 281.7 Q 146.1 282.0, 145.7 282.6 L 145.7 288.5 L 144.2 288.5 L 144.2 280.3 L 145.4 280.3 " fill="#000000"/>
<path class="legend" d="M 157.3 280.2 L 157.3 289.0 Q 157.3 292.5, 153.6 292.5 Q 151.8 292.5, 150.2 291.7 L 150.7 290.6 Q 151.5 291.0, 152.2 291.2 Q 152.8 291.3, 153.6 291.3 Q 154.8 291.3, 155.3 290.8 Q 155.8 290.2, 155.8 289.0 L 155.8 287.6 Q 155.0 288.6, 153.5 288.6 Q 151.8 288.6, 150.8 287.6 Q 149.9 286.5, 149.9 284.5 Q 149.9 282.4, 151.0 281.3 Q 152.1 280.1, 154.1 280.1 Q 155.1 280.1, 156.1 280.4 L 156.1 280.2 L 157.3 280.2 M 153.6 287.4 Q 154.4 287.4, 155.0 287.0 Q 155.6 286.5, 155.8 285.7 L 155.8 281.5 Q 155.0 281.3, 154.1 281.3 Q 152.8 281.3, 152.1 282.1 Q 151.4 283.0, 151.4 284.5 Q 151.4 285.9, 152.0 286.7 Q 152.5 287.4, 153.6 287.4 " fill="#000000"/>
<path class="legend" d="M 159.3 284.4 Q 159.3 282.3, 160.3 281.2 Q 161.3 280.1, 163.2 280.1 Q 165.0 280.1, 165.8 281.2 Q 166.6 282.3, 166.6 284.3 L 166.6 284.6 L 160.9 284.6 Q 160.9 286.0, 161.5 286.7 Q 162.1 287.4, 163.3 287.4 Q 163.9 287.4, 164.5 287.3 Q 165.1 287.1, 165.9 286.8 L 166.3 287.8 Q 165.5 288.2, 164.7 288.4 Q 164.0 288.6, 163.2 288.6 Q 161.4 288.6, 160.3 287.5 Q 159.3 286.4, 159.3 284.4 M 163.2 281.3 Q 162.2 281.3, 161.7 281.8 Q 161.1 282.4, 160.9 283.4 L 165.0 283.4 Q 164.9 282.3, 164.5 281.8 Q 164.0 281.3, 163.2 281.3 " fill="#000000"/>
<path class="legend" d="M 167.9 281.4 L 167.9 280.3 L 169.5 280.3 L 169.7 277.9 L 170.8 277.9 L 170.8 280.3 L 173.3 280.3 L 173.3 281.4 L 170.8 281.4 L 170.8 286.0 Q 170.8 287.4, 172.0 287.4 Q 172.5 287.4, 173.2 287.2 L 173.5 288.2 Q 172.6 288.6, 171.8 288.6 Q 170.7 288.6, 170.0 287.9 Q 169.3 287.3, 169.3 286.0 L 169.3 281.4 L 167.9 281.4 " fill="#000000"/>
<path class="bond-0 atom-0 atom-1" d="M 522.5,191.1 L 507.7,187.1" style="fill:none;fill-rule:evenodd;stroke:#FF0000;stroke-width:2.0px;stroke-linecap:butt;stroke-linejoin:miter;stroke-opacity:1"/>
<path class="bond-0 atom-0 atom-1" d="M 507.7,187.1 L 493.0,183.1" style="fill:none;fill-rule:evenodd;stroke:#000000;stroke-width:2.0px;stroke-linecap:butt;stroke-linejoin:miter;stroke-opacity:1"/>
<path class="bond-0 atom-0 atom-1" d="M 523.9,186.1 L 509.1,182.1" style="fill:none;fill-rule:evenodd;stroke:#FF0000;stroke-width:2.0px;stroke-linecap:butt;stroke-linejoin:miter;stroke-opacity:1"/>
<path class="bond-0 atom-0 atom-1" d="M 509.1,182.1 L 494.3,178.1" style="fill:none;fill-rule:evenodd;stroke:#000000;stroke-width:2.0px;stroke-linecap:butt;stroke-linejoin:miter;stroke-opacity:1"/>
<path class="bond-1 atom-1 atom-2" d="M 495.5,181.1 L 483.1,148.9" style="fill:none;fill-rule:evenodd;stroke:#000000;stroke-width:2.0px;stroke-linecap:butt;stroke-linejoin:miter;stroke-opacity:1"/>
<path class="bond-2 atom-2 atom-3" d="M 483.1,148.9 L 448.6,150.6" style="fill:none;fill-rule:evenodd;stroke:#000000;stroke-width:2.0px;stroke-linecap:butt;stroke-linejoin:miter;stroke-opacity:1"/>
<path class="bond-3 atom-3 atom-4" d="M 448.6,150.6 L 439.7,184.0" style="fill:none;fill-rule:evenodd;stroke:#000000;stroke-width:2.0px;stroke-linecap:butt;stroke-linejoin:miter;stroke-opacity:1"/>
<path class="bond-4 atom-4 atom-5" d="M 436.3,184.9 L 436.5,185.5" style="fill:none;fill-rule:evenodd;stroke:#000000;stroke-width:1.0px;stroke-linecap:butt;stroke-linejoin:miter;stroke-opacity:1"/>
<path class="bond-4 atom-4 atom-5" d="M 433.0,185.9 L 433.4,187.0" style="fill:none;fill-rule:evenodd;stroke:#000000;stroke-width:1.0px;stroke-linecap:butt;stroke-linejoin:miter;stroke-opacity:1"/>
<path class="bond-4 atom-4 atom-5" d="M 429.7,186.9 L 430.3,188.5" style="fill:none;fill-rule:evenodd;stroke:#000000;stroke-width:1.0px;stroke-linecap:butt;stroke-linejoin:miter;stroke-opacity:1"/>
<path class="bond-4 atom-4 atom-5" d="M 426.4,187.8 L 427.2,190.0" style="fill:none;fill-rule:evenodd;stroke:#000000;stroke-width:1.0px;stroke-linecap:butt;stroke-linejoin:miter;stroke-opacity:1"/>
<path class="bond-4 atom-4 atom-5" d="M 423.0,188.8 L 424.1,191.5" style="fill:none;fill-rule:evenodd;stroke:#000000;stroke-width:1.0px;stroke-linecap:butt;stroke-linejoin:miter;stroke-opacity:1"/>
<path class="bond-4 atom-4 atom-5" d="M 419.7,189.8 L 420.9,193.0" style="fill:none;fill-rule:evenodd;stroke:#000000;stroke-width:1.0px;stroke-linecap:butt;stroke-linejoin:miter;stroke-opacity:1"/>
<path class="bond-4 atom-4 atom-5" d="M 416.4,190.7 L 417.8,194.5" style="fill:none;fill-rule:evenodd;stroke:#000000;stroke-width:1.0px;stroke-linecap:butt;stroke-linejoin:miter;stroke-opacity:1"/>
<path class="bond-4 atom-4 atom-5" d="M 413.1,191.7 L 414.7,196.0" style="fill:none;fill-rule:evenodd;stroke:#000000;stroke-width:1.0px;stroke-linecap:butt;stroke-linejoin:miter;stroke-opacity:1"/>
<path class="bond-4 atom-4 atom-5" d="M 409.7,192.6 L 411.6,197.5" style="fill:none;fill-rule:evenodd;stroke:#000000;stroke-width:1.0px;stroke-linecap:butt;stroke-linejoin:miter;stroke-opacity:1"/>
<path class="bond-5 atom-5 atom-6" d="M 407.4,196.3 L 396.8,187.7" style="fill:none;fill-rule:evenodd;stroke:#000000;stroke-width:2.0px;stroke-linecap:butt;stroke-linejoin:miter;stroke-opacity:1"/>
<path class="bond-5 atom-5 atom-6" d="M 396.8,187.7 L 386.2,179.1" style="fill:none;fill-rule:evenodd;stroke:#FF0000;stroke-width:2.0px;stroke-linecap:butt;stroke-linejoin:miter;stroke-opacity:1"/>
<path class="bond-6 atom-4 atom-7" d="M 439.7,184.0 L 451.7,191.8" style="fill:none;fill-rule:evenodd;stroke:#000000;stroke-width:2.0px;stroke-linecap:butt;stroke-linejoin:miter;stroke-opacity:1"/>
<path class="bond-6 atom-4 atom-7" d="M 451.7,191.8 L 463.8,199.7" style="fill:none;fill-rule:evenodd;stroke:#0000FF;stroke-width:2.0px;stroke-linecap:butt;stroke-linejoin:miter;stroke-opacity:1"/>
<path class="bond-7 atom-8 atom-9" d="M 523.4,93.9 L 511.1,93.9" style="fill:none;fill-rule:evenodd;stroke:#FF0000;stroke-width:2.0px;stroke-linecap:butt;stroke-linejoin:miter;stroke-opacity:1"/>
<path class="bond-7 atom-8 atom-9" d="M 511.1,93.9 L 498.8,93.9" style="fill:none;fill-rule:evenodd;stroke:#CCCC00;stroke-width:2.0px;stroke-linecap:butt;stroke-linejoin:miter;stroke-opacity:1"/>
<path class="bond-7 atom-8 atom-9" d="M 523.4,88.7 L 511.1,88.7" style="fill:none;fill-rule:evenodd;stroke:#FF0000;stroke-width:2.0px;stroke-linecap:butt;stroke-linejoin:miter;stroke-opacity:1"/>
<path class="bond-7 atom-8 atom-9" d="M 511.1,88.7 L 498.8,88.7" style="fill:none;fill-rule:evenodd;stroke:#CCCC00;stroke-width:2.0px;stroke-linecap:butt;stroke-linejoin:miter;stroke-opacity:1"/>
<path class="bond-8 atom-9 atom-10" d="M 491.9,97.6 L 491.9,108.7" style="fill:none;fill-rule:evenodd;stroke:#CCCC00;stroke-width:2.0px;stroke-linecap:butt;stroke-linejoin:miter;stroke-opacity:1"/>
<path class="bond-8 atom-9 atom-10" d="M 491.9,108.7 L 491.9,119.8" style="fill:none;fill-rule:evenodd;stroke:#FF0000;stroke-width:2.0px;stroke-linecap:butt;stroke-linejoin:miter;stroke-opacity:1"/>
<path class="bond-8 atom-9 atom-10" d="M 497.1,97.6 L 497.1,108.7" style="fill:none;fill-rule:evenodd;stroke:#CCCC00;stroke-width:2.0px;stroke-linecap:butt;stroke-linejoin:miter;stroke-opacity:1"/>
<path class="bond-8 atom-9 atom-10" d="M 497.1,108.7 L 497.1,119.8" style="fill:none;fill-rule:evenodd;stroke:#FF0000;stroke-width:2.0px;stroke-linecap:butt;stroke-linejoin:miter;stroke-opacity:1"/>
<path class="bond-9 atom-9 atom-11" d="M 494.5,85.3 L 494.5,74.3" style="fill:none;fill-rule:evenodd;stroke:#CCCC00;stroke-width:2.0px;stroke-linecap:butt;stroke-linejoin:miter;stroke-opacity:1"/>
<path class="bond-9 atom-9 atom-11" d="M 494.5,74.3 L 494.5,63.3" style="fill:none;fill-rule:evenodd;stroke:#00CC00;stroke-width:2.0px;stroke-linecap:butt;stroke-linejoin:miter;stroke-opacity:1"/>
<path class="bond-10 atom-9 atom-12" d="M 490.3,91.3 L 475.1,91.3" style="fill:none;fill-rule:evenodd;stroke:#CCCC00;stroke-width:2.0px;stroke-linecap:butt;stroke-linejoin:miter;stroke-opacity:1"/>
<path class="bond-10 atom-9 atom-12" d="M 475.1,91.3 L 460.0,91.3" style="fill:none;fill-rule:evenodd;stroke:#000000;stroke-width:2.0px;stroke-linecap:butt;stroke-linejoin:miter;stroke-opacity:1"/>
<path class="bond-11 atom-12 atom-13" d="M 460.0,91.3 L 442.7,121.2" style="fill:none;fill-rule:evenodd;stroke:#000000;stroke-width:2.0px;stroke-linecap:butt;stroke-linejoin:miter;stroke-opacity:1"/>
<path class="bond-11 atom-12 atom-13" d="M 454.0,91.3 L 439.7,116.0" style="fill:none;fill-rule:evenodd;stroke:#000000;stroke-width:2.0px;stroke-linecap:butt;stroke-linejoin:miter;stroke-opacity:1"/>
<path class="bond-12 atom-13 atom-14" d="M 442.7,121.2 L 408.2,121.2" style="fill:none;fill-rule:evenodd;stroke:#000000;stroke-width:2.0px;stroke-linecap:butt;stroke-linejoin:miter;stroke-opacity:1"/>
<path class="bond-13 atom-14 atom-15" d="M 408.2,121.2 L 390.9,91.3" style="fill:none;fill-rule:evenodd;stroke:#000000;stroke-width:2.0px;stroke-linecap:butt;stroke-linejoin:miter;stroke-opacity:1"/>
<path class="bond-13 atom-14 atom-15" d="M 411.2,116.0 L 396.9,91.3" style="fill:none;fill-rule:evenodd;stroke:#000000;stroke-width:2.0px;stroke-linecap:butt;stroke-linejoin:miter;stroke-opacity:1"/>
<path class="bond-14 atom-15 atom-16" d="M 390.9,91.3 L 408.2,61.4" style="fill:none;fill-rule:evenodd;stroke:#000000;stroke-width:2.0px;stroke-linecap:butt;stroke-linejoin:miter;stroke-opacity:1"/>
<path class="bond-15 atom-16 atom-17" d="M 408.2,61.4 L 442.7,61.4" style="fill:none;fill-rule:evenodd;stroke:#000000;stroke-width:2.0px;stroke-linecap:butt;stroke-linejoin:miter;stroke-opacity:1"/>
<path class="bond-15 atom-16 atom-17" d="M 411.2,66.6 L 439.7,66.6" style="fill:none;fill-rule:evenodd;stroke:#000000;stroke-width:2.0px;stroke-linecap:butt;stroke-linejoin:miter;stroke-opacity:1"/>
<path class="bond-16 atom-7 atom-1" d="M 473.4,198.9 L 484.5,190.0" style="fill:none;fill-rule:evenodd;stroke:#0000FF;stroke-width:2.0px;stroke-linecap:butt;stroke-linejoin:miter;stroke-opacity:1"/>
<path class="bond-16 atom-7 atom-1" d="M 484.5,190.0 L 495.5,181.1" style="fill:none;fill-rule:evenodd;stroke:#000000;stroke-width:2.0px;stroke-linecap:butt;stroke-linejoin:miter;stroke-opacity:1"/>
<path class="bond-17 atom-17 atom-12" d="M 442.7,61.4 L 460.0,91.3" style="fill:none;fill-rule:evenodd;stroke:#000000;stroke-width:2.0px;stroke-linecap:butt;stroke-linejoin:miter;stroke-opacity:1"/>
<path d="M 494.9,179.5 L 495.5,181.1 L 494.9,181.6" style="fill:none;stroke:#000000;stroke-width:2.0px;stroke-linecap:butt;stroke-linejoin:miter;stroke-opacity:1;"/>
<path d="M 483.8,150.5 L 483.1,148.9 L 481.4,149.0" style="fill:none;stroke:#000000;stroke-width:2.0px;stroke-linecap:butt;stroke-linejoin:miter;stroke-opacity:1;"/>
<path d="M 450.4,150.5 L 448.6,150.6 L 448.2,152.3" style="fill:none;stroke:#000000;stroke-width:2.0px;stroke-linecap:butt;stroke-linejoin:miter;stroke-opacity:1;"/>
<path d="M 440.1,182.3 L 439.7,184.0 L 440.3,184.4" style="fill:none;stroke:#000000;stroke-width:2.0px;stroke-linecap:butt;stroke-linejoin:miter;stroke-opacity:1;"/>
<path d="M 443.6,119.7 L 442.7,121.2 L 441.0,121.2" style="fill:none;stroke:#000000;stroke-width:2.0px;stroke-linecap:butt;stroke-linejoin:miter;stroke-opacity:1;"/>
<path d="M 409.9,121.2 L 408.2,121.2 L 407.3,119.7" style="fill:none;stroke:#000000;stroke-width:2.0px;stroke-linecap:butt;stroke-linejoin:miter;stroke-opacity:1;"/>
<path d="M 391.8,92.8 L 390.9,91.3 L 391.8,89.8" style="fill:none;stroke:#000000;stroke-width:2.0px;stroke-linecap:butt;stroke-linejoin:miter;stroke-opacity:1;"/>
<path d="M 407.3,62.9 L 408.2,61.4 L 409.9,61.4" style="fill:none;stroke:#000000;stroke-width:2.0px;stroke-linecap:butt;stroke-linejoin:miter;stroke-opacity:1;"/>
<path d="M 441.0,61.4 L 442.7,61.4 L 443.6,62.9" style="fill:none;stroke:#000000;stroke-width:2.0px;stroke-linecap:butt;stroke-linejoin:miter;stroke-opacity:1;"/>
<path class="atom-0" d="M 524.3 190.1 Q 524.3 187.8, 525.5 186.5 Q 526.6 185.2, 528.8 185.2 Q 531.0 185.2, 532.1 186.5 Q 533.3 187.8, 533.3 190.1 Q 533.3 192.5, 532.1 193.9 Q 531.0 195.2, 528.8 195.2 Q 526.7 195.2, 525.5 193.9 Q 524.3 192.5, 524.3 190.1 M 528.8 194.1 Q 530.3 194.1, 531.1 193.1 Q 531.9 192.1, 531.9 190.1 Q 531.9 188.2, 531.1 187.2 Q 530.3 186.3, 528.8 186.3 Q 527.3 186.3, 526.5 187.2 Q 525.7 188.2, 525.7 190.1 Q 525.7 192.1, 526.5 193.1 Q 527.3 194.1, 528.8 194.1 " fill="#FF0000"/>
<path class="atom-6" d="M 366.4 169.7 L 367.8 169.7 L 367.8 173.9 L 372.8 173.9 L 372.8 169.7 L 374.1 169.7 L 374.1 179.5 L 372.8 179.5 L 372.8 175.0 L 367.8 175.0 L 367.8 179.5 L 366.4 179.5 L 366.4 169.7 " fill="#FF0000"/>
<path class="atom-6" d="M 376.1 174.6 Q 376.1 172.2, 377.3 170.9 Q 378.4 169.6, 380.6 169.6 Q 382.8 169.6, 383.9 170.9 Q 385.1 172.2, 385.1 174.6 Q 385.1 176.9, 383.9 178.3 Q 382.7 179.6, 380.6 179.6 Q 378.4 179.6, 377.3 178.3 Q 376.1 177.0, 376.1 174.6 M 380.6 178.5 Q 382.1 178.5, 382.9 177.5 Q 383.7 176.5, 383.7 174.6 Q 383.7 172.6, 382.9 171.7 Q 382.1 170.7, 380.6 170.7 Q 379.1 170.7, 378.3 171.7 Q 377.5 172.6, 377.5 174.6 Q 377.5 176.5, 378.3 177.5 Q 379.1 178.5, 380.6 178.5 " fill="#FF0000"/>
<path class="atom-7" d="M 466.4 197.9 L 469.6 203.1 Q 470.0 203.6, 470.5 204.5 Q 471.0 205.5, 471.0 205.5 L 471.0 197.9 L 472.3 197.9 L 472.3 207.7 L 471.0 207.7 L 467.5 202.0 Q 467.1 201.4, 466.7 200.6 Q 466.3 199.9, 466.2 199.6 L 466.2 207.7 L 464.9 207.7 L 464.9 197.9 L 466.4 197.9 " fill="#0000FF"/>
<path class="atom-7" d="M 464.8 208.7 L 466.1 208.7 L 466.1 212.8 L 471.1 212.8 L 471.1 208.7 L 472.4 208.7 L 472.4 218.5 L 471.1 218.5 L 471.1 214.0 L 466.1 214.0 L 466.1 218.5 L 464.8 218.5 L 464.8 208.7 " fill="#0000FF"/>
<path class="atom-8" d="M 524.6 91.3 Q 524.6 89.0, 525.7 87.7 Q 526.9 86.4, 529.1 86.4 Q 531.2 86.4, 532.4 87.7 Q 533.6 89.0, 533.6 91.3 Q 533.6 93.7, 532.4 95.1 Q 531.2 96.4, 529.1 96.4 Q 526.9 96.4, 525.7 95.1 Q 524.6 93.7, 524.6 91.3 M 529.1 95.3 Q 530.6 95.3, 531.4 94.3 Q 532.2 93.3, 532.2 91.3 Q 532.2 89.4, 531.4 88.4 Q 530.6 87.5, 529.1 87.5 Q 527.6 87.5, 526.8 88.4 Q 526.0 89.4, 526.0 91.3 Q 526.0 93.3, 526.8 94.3 Q 527.6 95.3, 529.1 95.3 " fill="#FF0000"/>
<path class="atom-9" d="M 491.8 94.7 Q 491.9 94.7, 492.3 94.9 Q 492.8 95.1, 493.3 95.2 Q 493.8 95.3, 494.3 95.3 Q 495.2 95.3, 495.8 94.9 Q 496.3 94.4, 496.3 93.6 Q 496.3 93.1, 496.0 92.8 Q 495.8 92.4, 495.3 92.3 Q 494.9 92.1, 494.2 91.9 Q 493.4 91.6, 492.8 91.4 Q 492.3 91.1, 492.0 90.6 Q 491.6 90.1, 491.6 89.2 Q 491.6 88.0, 492.4 87.2 Q 493.3 86.4, 494.9 86.4 Q 496.1 86.4, 497.3 87.0 L 497.0 88.0 Q 495.9 87.6, 495.0 87.6 Q 494.0 87.6, 493.5 88.0 Q 493.0 88.3, 493.0 89.0 Q 493.0 89.5, 493.2 89.9 Q 493.5 90.2, 493.9 90.4 Q 494.3 90.5, 495.0 90.7 Q 495.9 91.0, 496.4 91.3 Q 496.9 91.6, 497.3 92.1 Q 497.7 92.7, 497.7 93.6 Q 497.7 95.0, 496.8 95.7 Q 495.9 96.4, 494.3 96.4 Q 493.5 96.4, 492.8 96.3 Q 492.2 96.1, 491.4 95.8 L 491.8 94.7 " fill="#CCCC00"/>
<path class="atom-10" d="M 490.0 125.9 Q 490.0 123.5, 491.2 122.2 Q 492.4 120.9, 494.5 120.9 Q 496.7 120.9, 497.9 122.2 Q 499.0 123.5, 499.0 125.9 Q 499.0 128.2, 497.8 129.6 Q 496.7 130.9, 494.5 130.9 Q 492.4 130.9, 491.2 129.6 Q 490.0 128.3, 490.0 125.9 M 494.5 129.8 Q 496.0 129.8, 496.8 128.8 Q 497.6 127.8, 497.6 125.9 Q 497.6 124.0, 496.8 123.0 Q 496.0 122.0, 494.5 122.0 Q 493.0 122.0, 492.2 123.0 Q 491.4 123.9, 491.4 125.9 Q 491.4 127.8, 492.2 128.8 Q 493.0 129.8, 494.5 129.8 " fill="#FF0000"/>
<path class="atom-11" d="M 490.8 57.1 Q 490.8 54.7, 491.9 53.4 Q 493.0 52.1, 495.2 52.1 Q 497.2 52.1, 498.3 53.5 L 497.4 54.3 Q 496.6 53.3, 495.2 53.3 Q 493.7 53.3, 492.9 54.3 Q 492.2 55.2, 492.2 57.1 Q 492.2 59.0, 493.0 60.0 Q 493.8 61.0, 495.4 61.0 Q 496.4 61.0, 497.7 60.4 L 498.1 61.4 Q 497.6 61.8, 496.8 61.9 Q 496.0 62.1, 495.2 62.1 Q 493.0 62.1, 491.9 60.8 Q 490.8 59.5, 490.8 57.1 " fill="#00CC00"/>
<path class="atom-11" d="M 499.3 51.5 L 500.6 51.5 L 500.6 62.0 L 499.3 62.0 L 499.3 51.5 " fill="#00CC00"/>
<path class="legend" d="M 420.4 281.0 Q 422.4 281.0, 423.3 281.9 Q 424.3 282.8, 424.3 284.4 Q 424.3 285.9, 423.3 286.8 Q 422.3 287.7, 420.4 287.7 L 418.6 287.7 L 418.6 292.4 L 417.1 292.4 L 417.1 281.0 L 420.4 281.0 M 420.4 286.4 Q 421.5 286.4, 422.1 285.9 Q 422.7 285.4, 422.7 284.4 Q 422.7 283.4, 422.1 282.9 Q 421.5 282.3, 420.4 282.3 L 418.6 282.3 L 418.6 286.4 L 420.4 286.4 " fill="#000000"/>
<path class="legend" d="M 426.9 284.1 L 427.1 285.3 Q 427.9 284.0, 429.3 284.0 Q 429.8 284.0, 430.4 284.2 L 430.1 285.5 Q 429.5 285.3, 429.1 285.3 Q 428.4 285.3, 428.0 285.6 Q 427.5 285.9, 427.2 286.5 L 427.2 292.4 L 425.7 292.4 L 425.7 284.1 L 426.9 284.1 " fill="#000000"/>
<path class="legend" d="M 431.2 288.2 Q 431.2 286.2, 432.3 285.1 Q 433.3 284.0, 435.1 284.0 Q 436.9 284.0, 437.7 285.1 Q 438.5 286.2, 438.5 288.2 L 438.5 288.5 L 432.8 288.5 Q 432.8 289.8, 433.4 290.6 Q 434.1 291.3, 435.2 291.3 Q 435.9 291.3, 436.5 291.2 Q 437.1 291.0, 437.8 290.7 L 438.2 291.7 Q 437.4 292.1, 436.7 292.3 Q 435.9 292.5, 435.1 292.5 Q 433.3 292.5, 432.3 291.4 Q 431.2 290.3, 431.2 288.2 M 435.1 285.2 Q 434.2 285.2, 433.6 285.7 Q 433.0 286.3, 432.8 287.3 L 436.9 287.3 Q 436.8 286.2, 436.4 285.7 Q 435.9 285.2, 435.1 285.2 " fill="#000000"/>
<path class="legend" d="M 447.2 280.2 L 447.2 292.4 L 446.0 292.4 L 445.8 291.3 Q 444.9 292.5, 443.4 292.5 Q 441.6 292.5, 440.7 291.4 Q 439.7 290.4, 439.7 288.4 Q 439.7 286.3, 440.9 285.2 Q 442.0 284.0, 444.0 284.0 Q 444.8 284.0, 445.7 284.2 L 445.7 280.2 L 447.2 280.2 M 443.5 291.3 Q 444.3 291.3, 444.9 290.9 Q 445.5 290.4, 445.7 289.6 L 445.7 285.4 Q 444.9 285.2, 444.0 285.2 Q 442.7 285.2, 442.0 286.0 Q 441.3 286.9, 441.3 288.4 Q 441.3 289.8, 441.8 290.6 Q 442.4 291.3, 443.5 291.3 " fill="#000000"/>
<path class="legend" d="M 449.1 281.0 L 450.6 281.0 L 450.6 282.4 L 449.1 282.4 L 449.1 281.0 M 449.1 284.1 L 450.6 284.1 L 450.6 292.4 L 449.1 292.4 L 449.1 284.1 " fill="#000000"/>
<path class="legend" d="M 452.6 288.2 Q 452.6 286.3, 453.6 285.1 Q 454.6 284.0, 456.5 284.0 Q 458.4 284.0, 459.4 285.4 L 458.4 286.1 Q 458.0 285.7, 457.5 285.4 Q 457.1 285.2, 456.5 285.2 Q 455.4 285.2, 454.7 286.0 Q 454.1 286.7, 454.1 288.2 Q 454.1 289.8, 454.8 290.5 Q 455.4 291.3, 456.6 291.3 Q 457.3 291.3, 457.7 291.2 Q 458.2 291.0, 458.8 290.8 L 459.2 291.8 Q 458.0 292.5, 456.5 292.5 Q 454.6 292.5, 453.6 291.3 Q 452.6 290.2, 452.6 288.2 " fill="#000000"/>
<path class="legend" d="M 460.4 285.3 L 460.4 284.1 L 461.9 284.1 L 462.2 281.7 L 463.3 281.7 L 463.3 284.1 L 465.8 284.1 L 465.8 285.3 L 463.3 285.3 L 463.3 289.8 Q 463.3 291.3, 464.5 291.3 Q 465.0 291.3, 465.7 291.0 L 465.9 292.1 Q 465.1 292.5, 464.2 292.5 Q 463.2 292.5, 462.5 291.8 Q 461.8 291.2, 461.8 289.9 L 461.8 285.3 L 460.4 285.3 " fill="#000000"/>
<path class="legend" d="M 467.0 288.2 Q 467.0 286.2, 468.0 285.1 Q 469.0 284.0, 470.8 284.0 Q 472.6 284.0, 473.4 285.1 Q 474.2 286.2, 474.2 288.2 L 474.2 288.5 L 468.5 288.5 Q 468.5 289.8, 469.1 290.6 Q 469.8 291.3, 470.9 291.3 Q 471.6 291.3, 472.2 291.2 Q 472.8 291.0, 473.5 290.7 L 473.9 291.7 Q 473.1 292.1, 472.4 292.3 Q 471.6 292.5, 470.9 292.5 Q 469.0 292.5, 468.0 291.4 Q 467.0 290.3, 467.0 288.2 M 470.8 285.2 Q 469.9 285.2, 469.3 285.7 Q 468.7 286.3, 468.6 287.3 L 472.7 287.3 Q 472.5 286.2, 472.1 285.7 Q 471.6 285.2, 470.8 285.2 " fill="#000000"/>
<path class="legend" d="M 482.9 280.2 L 482.9 292.4 L 481.7 292.4 L 481.5 291.3 Q 480.6 292.5, 479.1 292.5 Q 477.4 292.5, 476.4 291.4 Q 475.5 290.4, 475.5 288.4 Q 475.5 286.3, 476.6 285.2 Q 477.7 284.0, 479.7 284.0 Q 480.5 284.0, 481.4 284.2 L 481.4 280.2 L 482.9 280.2 M 479.2 291.3 Q 480.0 291.3, 480.6 290.9 Q 481.2 290.4, 481.4 289.6 L 481.4 285.4 Q 480.6 285.2, 479.7 285.2 Q 478.4 285.2, 477.7 286.0 Q 477.0 286.9, 477.0 288.4 Q 477.0 289.8, 477.6 290.6 Q 478.1 291.3, 479.2 291.3 " fill="#000000"/>
<path class="bond-0 atom-0 atom-1" d="M 625.5,108.2 L 636.1,117.9" style="fill:none;fill-rule:evenodd;stroke:#FF0000;stroke-width:2.0px;stroke-linecap:butt;stroke-linejoin:miter;stroke-opacity:1"/>
<path class="bond-0 atom-0 atom-1" d="M 636.1,117.9 L 646.6,127.7" style="fill:none;fill-rule:evenodd;stroke:#000000;stroke-width:2.0px;stroke-linecap:butt;stroke-linejoin:miter;stroke-opacity:1"/>
<path class="bond-0 atom-0 atom-1" d="M 622.0,112.0 L 632.6,121.7" style="fill:none;fill-rule:evenodd;stroke:#FF0000;stroke-width:2.0px;stroke-linecap:butt;stroke-linejoin:miter;stroke-opacity:1"/>
<path class="bond-0 atom-0 atom-1" d="M 632.6,121.7 L 643.1,131.5" style="fill:none;fill-rule:evenodd;stroke:#000000;stroke-width:2.0px;stroke-linecap:butt;stroke-linejoin:miter;stroke-opacity:1"/>
<path class="bond-1 atom-1 atom-2" d="M 643.5,128.3 L 639.4,162.6" style="fill:none;fill-rule:evenodd;stroke:#000000;stroke-width:2.0px;stroke-linecap:butt;stroke-linejoin:miter;stroke-opacity:1"/>
<path class="bond-2 atom-2 atom-3" d="M 639.4,162.6 L 670.8,177.1" style="fill:none;fill-rule:evenodd;stroke:#000000;stroke-width:2.0px;stroke-linecap:butt;stroke-linejoin:miter;stroke-opacity:1"/>
<path class="bond-3 atom-3 atom-4" d="M 670.8,177.1 L 694.2,151.7" style="fill:none;fill-rule:evenodd;stroke:#000000;stroke-width:2.0px;stroke-linecap:butt;stroke-linejoin:miter;stroke-opacity:1"/>
<path class="bond-4 atom-4 atom-5" d="M 694.2,151.7 L 728.5,155.8" style="fill:none;fill-rule:evenodd;stroke:#000000;stroke-width:2.0px;stroke-linecap:butt;stroke-linejoin:miter;stroke-opacity:1"/>
<path class="bond-5 atom-5 atom-6" d="M 728.5,155.8 L 736.5,145.1" style="fill:none;fill-rule:evenodd;stroke:#000000;stroke-width:2.0px;stroke-linecap:butt;stroke-linejoin:miter;stroke-opacity:1"/>
<path class="bond-5 atom-5 atom-6" d="M 736.5,145.1 L 744.5,134.3" style="fill:none;fill-rule:evenodd;stroke:#FF0000;stroke-width:2.0px;stroke-linecap:butt;stroke-linejoin:miter;stroke-opacity:1"/>
<path class="bond-6 atom-6 atom-7" d="M 754.8,128.8 L 767.0,130.2" style="fill:none;fill-rule:evenodd;stroke:#FF0000;stroke-width:2.0px;stroke-linecap:butt;stroke-linejoin:miter;stroke-opacity:1"/>
<path class="bond-6 atom-6 atom-7" d="M 767.0,130.2 L 779.2,131.7" style="fill:none;fill-rule:evenodd;stroke:#CCCC00;stroke-width:2.0px;stroke-linecap:butt;stroke-linejoin:miter;stroke-opacity:1"/>
<path class="bond-7 atom-7 atom-8" d="M 786.8,126.5 L 788.1,115.4" style="fill:none;fill-rule:evenodd;stroke:#CCCC00;stroke-width:2.0px;stroke-linecap:butt;stroke-linejoin:miter;stroke-opacity:1"/>
<path class="bond-7 atom-7 atom-8" d="M 788.1,115.4 L 789.4,104.4" style="fill:none;fill-rule:evenodd;stroke:#FF0000;stroke-width:2.0px;stroke-linecap:butt;stroke-linejoin:miter;stroke-opacity:1"/>
<path class="bond-7 atom-7 atom-8" d="M 781.6,125.8 L 782.9,114.8" style="fill:none;fill-rule:evenodd;stroke:#CCCC00;stroke-width:2.0px;stroke-linecap:butt;stroke-linejoin:miter;stroke-opacity:1"/>
<path class="bond-7 atom-7 atom-8" d="M 782.9,114.8 L 784.2,103.8" style="fill:none;fill-rule:evenodd;stroke:#FF0000;stroke-width:2.0px;stroke-linecap:butt;stroke-linejoin:miter;stroke-opacity:1"/>
<path class="bond-8 atom-7 atom-9" d="M 780.2,138.1 L 778.9,149.1" style="fill:none;fill-rule:evenodd;stroke:#CCCC00;stroke-width:2.0px;stroke-linecap:butt;stroke-linejoin:miter;stroke-opacity:1"/>
<path class="bond-8 atom-7 atom-9" d="M 778.9,149.1 L 777.6,160.1" style="fill:none;fill-rule:evenodd;stroke:#FF0000;stroke-width:2.0px;stroke-linecap:butt;stroke-linejoin:miter;stroke-opacity:1"/>
<path class="bond-8 atom-7 atom-9" d="M 785.3,138.8 L 784.0,149.7" style="fill:none;fill-rule:evenodd;stroke:#CCCC00;stroke-width:2.0px;stroke-linecap:butt;stroke-linejoin:miter;stroke-opacity:1"/>
<path class="bond-8 atom-7 atom-9" d="M 784.0,149.7 L 782.7,160.7" style="fill:none;fill-rule:evenodd;stroke:#FF0000;stroke-width:2.0px;stroke-linecap:butt;stroke-linejoin:miter;stroke-opacity:1"/>
<path class="bond-9 atom-7 atom-10" d="M 787.8,132.7 L 802.8,134.5" style="fill:none;fill-rule:evenodd;stroke:#CCCC00;stroke-width:2.0px;stroke-linecap:butt;stroke-linejoin:miter;stroke-opacity:1"/>
<path class="bond-9 atom-7 atom-10" d="M 802.8,134.5 L 817.8,136.2" style="fill:none;fill-rule:evenodd;stroke:#000000;stroke-width:2.0px;stroke-linecap:butt;stroke-linejoin:miter;stroke-opacity:1"/>
<path class="bond-10 atom-10 atom-11" d="M 817.8,136.2 L 831.4,168.0" style="fill:none;fill-rule:evenodd;stroke:#000000;stroke-width:2.0px;stroke-linecap:butt;stroke-linejoin:miter;stroke-opacity:1"/>
<path class="bond-10 atom-10 atom-11" d="M 823.7,136.9 L 835.0,163.2" style="fill:none;fill-rule:evenodd;stroke:#000000;stroke-width:2.0px;stroke-linecap:butt;stroke-linejoin:miter;stroke-opacity:1"/>
<path class="bond-11 atom-11 atom-12" d="M 831.4,168.0 L 865.7,172.0" style="fill:none;fill-rule:evenodd;stroke:#000000;stroke-width:2.0px;stroke-linecap:butt;stroke-linejoin:miter;stroke-opacity:1"/>
<path class="bond-12 atom-12 atom-13" d="M 865.7,172.0 L 886.4,144.4" style="fill:none;fill-rule:evenodd;stroke:#000000;stroke-width:2.0px;stroke-linecap:butt;stroke-linejoin:miter;stroke-opacity:1"/>
<path class="bond-12 atom-12 atom-13" d="M 863.3,166.5 L 880.4,143.6" style="fill:none;fill-rule:evenodd;stroke:#000000;stroke-width:2.0px;stroke-linecap:butt;stroke-linejoin:miter;stroke-opacity:1"/>
<path class="bond-13 atom-13 atom-14" d="M 886.4,144.4 L 872.7,112.6" style="fill:none;fill-rule:evenodd;stroke:#000000;stroke-width:2.0px;stroke-linecap:butt;stroke-linejoin:miter;stroke-opacity:1"/>
<path class="bond-14 atom-14 atom-15" d="M 872.7,112.6 L 838.4,108.6" style="fill:none;fill-rule:evenodd;stroke:#000000;stroke-width:2.0px;stroke-linecap:butt;stroke-linejoin:miter;stroke-opacity:1"/>
<path class="bond-14 atom-14 atom-15" d="M 869.2,117.4 L 840.8,114.1" style="fill:none;fill-rule:evenodd;stroke:#000000;stroke-width:2.0px;stroke-linecap:butt;stroke-linejoin:miter;stroke-opacity:1"/>
<path class="bond-15 atom-4 atom-16" d="M 694.2,151.7 L 687.5,139.7" style="fill:none;fill-rule:evenodd;stroke:#000000;stroke-width:2.0px;stroke-linecap:butt;stroke-linejoin:miter;stroke-opacity:1"/>
<path class="bond-15 atom-4 atom-16" d="M 687.5,139.7 L 680.7,127.6" style="fill:none;fill-rule:evenodd;stroke:#0000FF;stroke-width:2.0px;stroke-linecap:butt;stroke-linejoin:miter;stroke-opacity:1"/>
<path class="bond-16 atom-16 atom-1" d="M 672.5,122.5 L 658.0,125.4" style="fill:none;fill-rule:evenodd;stroke:#0000FF;stroke-width:2.0px;stroke-linecap:butt;stroke-linejoin:miter;stroke-opacity:1"/>
<path class="bond-16 atom-16 atom-1" d="M 658.0,125.4 L 643.5,128.3" style="fill:none;fill-rule:evenodd;stroke:#000000;stroke-width:2.0px;stroke-linecap:butt;stroke-linejoin:miter;stroke-opacity:1"/>
<path class="bond-17 atom-15 atom-10" d="M 838.4,108.6 L 817.8,136.2" style="fill:none;fill-rule:evenodd;stroke:#000000;stroke-width:2.0px;stroke-linecap:butt;stroke-linejoin:miter;stroke-opacity:1"/>
<path d="M 643.3,130.0 L 643.5,128.3 L 644.2,128.2" style="fill:none;stroke:#000000;stroke-width:2.0px;stroke-linecap:butt;stroke-linejoin:miter;stroke-opacity:1;"/>
<path d="M 639.6,160.9 L 639.4,162.6 L 641.0,163.3" style="fill:none;stroke:#000000;stroke-width:2.0px;stroke-linecap:butt;stroke-linejoin:miter;stroke-opacity:1;"/>
<path d="M 669.2,176.3 L 670.8,177.1 L 672.0,175.8" style="fill:none;stroke:#000000;stroke-width:2.0px;stroke-linecap:butt;stroke-linejoin:miter;stroke-opacity:1;"/>
<path d="M 726.8,155.6 L 728.5,155.8 L 728.9,155.2" style="fill:none;stroke:#000000;stroke-width:2.0px;stroke-linecap:butt;stroke-linejoin:miter;stroke-opacity:1;"/>
<path d="M 830.7,166.4 L 831.4,168.0 L 833.1,168.2" style="fill:none;stroke:#000000;stroke-width:2.0px;stroke-linecap:butt;stroke-linejoin:miter;stroke-opacity:1;"/>
<path d="M 864.0,171.8 L 865.7,172.0 L 866.7,170.6" style="fill:none;stroke:#000000;stroke-width:2.0px;stroke-linecap:butt;stroke-linejoin:miter;stroke-opacity:1;"/>
<path d="M 885.3,145.7 L 886.4,144.4 L 885.7,142.8" style="fill:none;stroke:#000000;stroke-width:2.0px;stroke-linecap:butt;stroke-linejoin:miter;stroke-opacity:1;"/>
<path d="M 873.4,114.2 L 872.7,112.6 L 871.0,112.4" style="fill:none;stroke:#000000;stroke-width:2.0px;stroke-linecap:butt;stroke-linejoin:miter;stroke-opacity:1;"/>
<path d="M 840.2,108.8 L 838.4,108.6 L 837.4,109.9" style="fill:none;stroke:#000000;stroke-width:2.0px;stroke-linecap:butt;stroke-linejoin:miter;stroke-opacity:1;"/>
<path class="atom-0" d="M 613.6 104.9 Q 613.6 102.6, 614.8 101.2 Q 616.0 99.9, 618.1 99.9 Q 620.3 99.9, 621.5 101.2 Q 622.6 102.6, 622.6 104.9 Q 622.6 107.3, 621.4 108.6 Q 620.3 110.0, 618.1 110.0 Q 616.0 110.0, 614.8 108.6 Q 613.6 107.3, 613.6 104.9 M 618.1 108.9 Q 619.6 108.9, 620.4 107.9 Q 621.2 106.9, 621.2 104.9 Q 621.2 103.0, 620.4 102.0 Q 619.6 101.0, 618.1 101.0 Q 616.6 101.0, 615.8 102.0 Q 615.0 103.0, 615.0 104.9 Q 615.0 106.9, 615.8 107.9 Q 616.6 108.9, 618.1 108.9 " fill="#FF0000"/>
<path class="atom-6" d="M 744.7 128.1 Q 744.7 125.8, 745.9 124.5 Q 747.0 123.2, 749.2 123.2 Q 751.4 123.2, 752.5 124.5 Q 753.7 125.8, 753.7 128.1 Q 753.7 130.5, 752.5 131.9 Q 751.3 133.2, 749.2 133.2 Q 747.0 133.2, 745.9 131.9 Q 744.7 130.5, 744.7 128.1 M 749.2 132.1 Q 750.7 132.1, 751.5 131.1 Q 752.3 130.1, 752.3 128.1 Q 752.3 126.2, 751.5 125.2 Q 750.7 124.3, 749.2 124.3 Q 747.7 124.3, 746.9 125.2 Q 746.1 126.2, 746.1 128.1 Q 746.1 130.1, 746.9 131.1 Q 747.7 132.1, 749.2 132.1 " fill="#FF0000"/>
<path class="atom-7" d="M 780.7 135.5 Q 780.8 135.6, 781.3 135.8 Q 781.7 136.0, 782.2 136.1 Q 782.7 136.2, 783.2 136.2 Q 784.2 136.2, 784.7 135.7 Q 785.2 135.3, 785.2 134.5 Q 785.2 134.0, 785.0 133.6 Q 784.7 133.3, 784.3 133.1 Q 783.9 132.9, 783.2 132.7 Q 782.3 132.5, 781.8 132.2 Q 781.3 132.0, 780.9 131.4 Q 780.6 130.9, 780.6 130.0 Q 780.6 128.8, 781.4 128.1 Q 782.2 127.3, 783.9 127.3 Q 785.0 127.3, 786.3 127.8 L 786.0 128.9 Q 784.8 128.4, 783.9 128.4 Q 783.0 128.4, 782.4 128.8 Q 781.9 129.2, 781.9 129.9 Q 781.9 130.4, 782.2 130.7 Q 782.5 131.0, 782.9 131.2 Q 783.3 131.4, 783.9 131.6 Q 784.8 131.9, 785.3 132.2 Q 785.9 132.4, 786.2 133.0 Q 786.6 133.5, 786.6 134.5 Q 786.6 135.9, 785.7 136.6 Q 784.8 137.3, 783.3 137.3 Q 782.4 137.3, 781.8 137.1 Q 781.1 136.9, 780.3 136.6 L 780.7 135.5 " fill="#CCCC00"/>
<path class="atom-8" d="M 783.1 97.9 Q 783.1 95.6, 784.2 94.2 Q 785.4 92.9, 787.5 92.9 Q 789.7 92.9, 790.9 94.2 Q 792.0 95.6, 792.0 97.9 Q 792.0 100.3, 790.9 101.6 Q 789.7 103.0, 787.5 103.0 Q 785.4 103.0, 784.2 101.6 Q 783.1 100.3, 783.1 97.9 M 787.5 101.9 Q 789.0 101.9, 789.8 100.9 Q 790.6 99.9, 790.6 97.9 Q 790.6 96.0, 789.8 95.0 Q 789.0 94.0, 787.5 94.0 Q 786.0 94.0, 785.2 95.0 Q 784.4 96.0, 784.4 97.9 Q 784.4 99.9, 785.2 100.9 Q 786.0 101.9, 787.5 101.9 " fill="#FF0000"/>
<path class="atom-9" d="M 774.9 166.5 Q 774.9 164.1, 776.1 162.8 Q 777.2 161.5, 779.4 161.5 Q 781.6 161.5, 782.7 162.8 Q 783.9 164.1, 783.9 166.5 Q 783.9 168.9, 782.7 170.2 Q 781.6 171.6, 779.4 171.6 Q 777.3 171.6, 776.1 170.2 Q 774.9 168.9, 774.9 166.5 M 779.4 170.5 Q 780.9 170.5, 781.7 169.5 Q 782.5 168.5, 782.5 166.5 Q 782.5 164.6, 781.7 163.6 Q 780.9 162.6, 779.4 162.6 Q 777.9 162.6, 777.1 163.6 Q 776.3 164.6, 776.3 166.5 Q 776.3 168.5, 777.1 169.5 Q 777.9 170.5, 779.4 170.5 " fill="#FF0000"/>
<path class="atom-16" d="M 675.2 116.7 L 678.4 121.9 Q 678.7 122.4, 679.2 123.3 Q 679.7 124.2, 679.8 124.3 L 679.8 116.7 L 681.1 116.7 L 681.1 126.5 L 679.7 126.5 L 676.3 120.8 Q 675.9 120.1, 675.5 119.4 Q 675.0 118.6, 674.9 118.4 L 674.9 126.5 L 673.6 126.5 L 673.6 116.7 L 675.2 116.7 " fill="#0000FF"/>
<path class="atom-16" d="M 683.0 116.7 L 684.3 116.7 L 684.3 120.9 L 689.3 120.9 L 689.3 116.7 L 690.6 116.7 L 690.6 126.5 L 689.3 126.5 L 689.3 122.0 L 684.3 122.0 L 684.3 126.5 L 683.0 126.5 L 683.0 116.7 " fill="#0000FF"/>
<path class="legend" d="M 732.3 277.2 L 733.8 277.2 L 733.8 288.6 L 732.3 288.6 L 732.3 277.2 " fill="#000000"/>
<path class="legend" d="M 740.0 280.2 Q 741.4 280.2, 742.0 281.0 Q 742.7 281.7, 742.7 283.1 L 742.7 288.6 L 741.2 288.6 L 741.2 283.3 Q 741.2 282.3, 740.9 281.8 Q 740.5 281.4, 739.7 281.4 Q 738.9 281.4, 738.3 281.7 Q 737.7 282.1, 737.3 282.7 L 737.3 288.6 L 735.8 288.6 L 735.8 280.4 L 737.0 280.4 L 737.2 281.5 Q 738.3 280.2, 740.0 280.2 " fill="#000000"/>
<path class="legend" d="M 748.4 280.2 Q 750.1 280.2, 751.0 281.3 Q 752.0 282.3, 752.0 284.3 Q 752.0 286.4, 750.9 287.6 Q 749.7 288.7, 747.8 288.7 Q 746.8 288.7, 746.1 288.5 L 746.1 292.5 L 744.6 292.5 L 744.6 280.4 L 745.8 280.4 L 746.0 281.3 Q 746.4 280.8, 747.0 280.5 Q 747.6 280.2, 748.4 280.2 M 747.8 287.5 Q 749.0 287.5, 749.7 286.7 Q 750.5 285.8, 750.5 284.3 Q 750.5 282.9, 749.9 282.2 Q 749.3 281.4, 748.3 281.4 Q 747.5 281.4, 746.9 281.8 Q 746.3 282.3, 746.1 283.0 L 746.1 287.3 Q 746.9 287.5, 747.8 287.5 " fill="#000000"/>
<path class="legend" d="M 760.3 280.4 L 760.3 288.6 L 759.0 288.6 L 758.9 287.4 Q 757.8 288.7, 756.1 288.7 Q 754.7 288.7, 754.0 288.0 Q 753.3 287.2, 753.3 285.8 L 753.3 280.4 L 754.8 280.4 L 754.8 285.7 Q 754.8 286.7, 755.2 287.1 Q 755.5 287.5, 756.4 287.5 Q 757.1 287.5, 757.7 287.2 Q 758.4 286.9, 758.8 286.2 L 758.8 280.4 L 760.3 280.4 " fill="#000000"/>
<path class="legend" d="M 762.2 281.5 L 762.2 280.4 L 763.7 280.4 L 764.0 278.0 L 765.1 278.0 L 765.1 280.4 L 767.6 280.4 L 767.6 281.5 L 765.1 281.5 L 765.1 286.1 Q 765.1 287.5, 766.3 287.5 Q 766.8 287.5, 767.5 287.3 L 767.7 288.3 Q 766.9 288.7, 766.0 288.7 Q 765.0 288.7, 764.3 288.0 Q 763.6 287.4, 763.6 286.1 L 763.6 281.5 L 762.2 281.5 " fill="#000000"/>
</svg>