<svg xmlns="http://www.w3.org/2000/svg" xmlns:rdkit="http://www.rdkit.org/xml" xmlns:xlink="http://www.w3.org/1999/xlink" version="1.1" baseProfile="full" xml:space="preserve" width="900px" height="300px" viewBox="0 0 900 300">
<!-- END OF HEADER -->
<rect style="opacity:1.0;fill:#FFFFFF;stroke:none" width="900.0" height="300.0" x="0.0" y="0.0"> </rect>
<path class="bond-0 atom-0 atom-1" d="M 186.9,203.7 L 169.7,233.4" style="fill:none;fill-rule:evenodd;stroke:#000000;stroke-width:2.0px;stroke-linecap:butt;stroke-linejoin:miter;stroke-opacity:1"/>
<path class="bond-1 atom-1 atom-2" d="M 169.7,233.4 L 155.0,233.4" style="fill:none;fill-rule:evenodd;stroke:#000000;stroke-width:2.0px;stroke-linecap:butt;stroke-linejoin:miter;stroke-opacity:1"/>
<path class="bond-1 atom-1 atom-2" d="M 155.0,233.4 L 140.2,233.4" style="fill:none;fill-rule:evenodd;stroke:#0000FF;stroke-width:2.0px;stroke-linecap:butt;stroke-linejoin:miter;stroke-opacity:1"/>
<path class="bond-2 atom-2 atom-3" d="M 132.0,227.5 L 125.1,215.6" style="fill:none;fill-rule:evenodd;stroke:#0000FF;stroke-width:2.0px;stroke-linecap:butt;stroke-linejoin:miter;stroke-opacity:1"/>
<path class="bond-2 atom-2 atom-3" d="M 125.1,215.6 L 118.3,203.7" style="fill:none;fill-rule:evenodd;stroke:#000000;stroke-width:2.0px;stroke-linecap:butt;stroke-linejoin:miter;stroke-opacity:1"/>
<path class="bond-3 atom-3 atom-4" d="M 118.3,203.7 L 135.4,174.0" style="fill:none;fill-rule:evenodd;stroke:#000000;stroke-width:2.0px;stroke-linecap:butt;stroke-linejoin:miter;stroke-opacity:1"/>
<path class="bond-4 atom-4 atom-5" d="M 135.4,174.0 L 150.2,174.0" style="fill:none;fill-rule:evenodd;stroke:#000000;stroke-width:2.0px;stroke-linecap:butt;stroke-linejoin:miter;stroke-opacity:1"/>
<path class="bond-4 atom-4 atom-5" d="M 150.2,174.0 L 164.9,174.0" style="fill:none;fill-rule:evenodd;stroke:#0000FF;stroke-width:2.0px;stroke-linecap:butt;stroke-linejoin:miter;stroke-opacity:1"/>
<path class="bond-5 atom-6 atom-7" d="M 47.8,32.6 L 62.8,63.5" style="fill:none;fill-rule:evenodd;stroke:#000000;stroke-width:2.0px;stroke-linecap:butt;stroke-linejoin:miter;stroke-opacity:1"/>
<path class="bond-6 atom-7 atom-8" d="M 62.8,63.5 L 77.1,64.5" style="fill:none;fill-rule:evenodd;stroke:#000000;stroke-width:2.0px;stroke-linecap:butt;stroke-linejoin:miter;stroke-opacity:1"/>
<path class="bond-6 atom-7 atom-8" d="M 77.1,64.5 L 91.4,65.5" style="fill:none;fill-rule:evenodd;stroke:#FF0000;stroke-width:2.0px;stroke-linecap:butt;stroke-linejoin:miter;stroke-opacity:1"/>
<path class="bond-7 atom-8 atom-9" d="M 100.0,72.1 L 106.0,84.4" style="fill:none;fill-rule:evenodd;stroke:#FF0000;stroke-width:2.0px;stroke-linecap:butt;stroke-linejoin:miter;stroke-opacity:1"/>
<path class="bond-7 atom-8 atom-9" d="M 106.0,84.4 L 112.0,96.8" style="fill:none;fill-rule:evenodd;stroke:#000000;stroke-width:2.0px;stroke-linecap:butt;stroke-linejoin:miter;stroke-opacity:1"/>
<path class="bond-8 atom-9 atom-10" d="M 112.0,96.8 L 104.5,107.9" style="fill:none;fill-rule:evenodd;stroke:#000000;stroke-width:2.0px;stroke-linecap:butt;stroke-linejoin:miter;stroke-opacity:1"/>
<path class="bond-8 atom-9 atom-10" d="M 104.5,107.9 L 96.9,119.1" style="fill:none;fill-rule:evenodd;stroke:#FF0000;stroke-width:2.0px;stroke-linecap:butt;stroke-linejoin:miter;stroke-opacity:1"/>
<path class="bond-9 atom-10 atom-11" d="M 87.2,124.8 L 72.9,123.8" style="fill:none;fill-rule:evenodd;stroke:#FF0000;stroke-width:2.0px;stroke-linecap:butt;stroke-linejoin:miter;stroke-opacity:1"/>
<path class="bond-9 atom-10 atom-11" d="M 72.9,123.8 L 58.6,122.7" style="fill:none;fill-rule:evenodd;stroke:#000000;stroke-width:2.0px;stroke-linecap:butt;stroke-linejoin:miter;stroke-opacity:1"/>
<path class="bond-10 atom-11 atom-12" d="M 58.6,122.7 L 39.4,151.2" style="fill:none;fill-rule:evenodd;stroke:#000000;stroke-width:2.0px;stroke-linecap:butt;stroke-linejoin:miter;stroke-opacity:1"/>
<path class="bond-11 atom-9 atom-13" d="M 112.0,96.8 L 146.2,99.2" style="fill:none;fill-rule:evenodd;stroke:#000000;stroke-width:2.0px;stroke-linecap:butt;stroke-linejoin:miter;stroke-opacity:1"/>
<path class="bond-12 atom-13 atom-14" d="M 146.2,99.2 L 164.4,128.3" style="fill:none;fill-rule:evenodd;stroke:#000000;stroke-width:2.0px;stroke-linecap:butt;stroke-linejoin:miter;stroke-opacity:1"/>
<path class="bond-12 atom-13 atom-14" d="M 152.6,99.6 L 166.8,122.4" style="fill:none;fill-rule:evenodd;stroke:#000000;stroke-width:2.0px;stroke-linecap:butt;stroke-linejoin:miter;stroke-opacity:1"/>
<path class="bond-13 atom-14 atom-15" d="M 164.4,128.3 L 197.7,120.0" style="fill:none;fill-rule:evenodd;stroke:#000000;stroke-width:2.0px;stroke-linecap:butt;stroke-linejoin:miter;stroke-opacity:1"/>
<path class="bond-14 atom-15 atom-16" d="M 197.7,120.0 L 226.1,139.2" style="fill:none;fill-rule:evenodd;stroke:#000000;stroke-width:2.0px;stroke-linecap:butt;stroke-linejoin:miter;stroke-opacity:1"/>
<path class="bond-14 atom-15 atom-16" d="M 203.0,117.4 L 226.5,133.3" style="fill:none;fill-rule:evenodd;stroke:#000000;stroke-width:2.0px;stroke-linecap:butt;stroke-linejoin:miter;stroke-opacity:1"/>
<path class="bond-15 atom-16 atom-17" d="M 226.1,139.2 L 239.1,132.9" style="fill:none;fill-rule:evenodd;stroke:#000000;stroke-width:2.0px;stroke-linecap:butt;stroke-linejoin:miter;stroke-opacity:1"/>
<path class="bond-15 atom-16 atom-17" d="M 239.1,132.9 L 252.1,126.6" style="fill:none;fill-rule:evenodd;stroke:#0000FF;stroke-width:2.0px;stroke-linecap:butt;stroke-linejoin:miter;stroke-opacity:1"/>
<path class="bond-16 atom-17 atom-18" d="M 257.4,118.2 L 258.4,104.1" style="fill:none;fill-rule:evenodd;stroke:#0000FF;stroke-width:2.0px;stroke-linecap:butt;stroke-linejoin:miter;stroke-opacity:1"/>
<path class="bond-16 atom-17 atom-18" d="M 258.4,104.1 L 259.4,90.0" style="fill:none;fill-rule:evenodd;stroke:#000000;stroke-width:2.0px;stroke-linecap:butt;stroke-linejoin:miter;stroke-opacity:1"/>
<path class="bond-16 atom-17 atom-18" d="M 252.2,117.9 L 253.1,105.2" style="fill:none;fill-rule:evenodd;stroke:#0000FF;stroke-width:2.0px;stroke-linecap:butt;stroke-linejoin:miter;stroke-opacity:1"/>
<path class="bond-16 atom-17 atom-18" d="M 253.1,105.2 L 254.0,92.6" style="fill:none;fill-rule:evenodd;stroke:#000000;stroke-width:2.0px;stroke-linecap:butt;stroke-linejoin:miter;stroke-opacity:1"/>
<path class="bond-17 atom-18 atom-19" d="M 259.4,90.0 L 230.9,70.8" style="fill:none;fill-rule:evenodd;stroke:#000000;stroke-width:2.0px;stroke-linecap:butt;stroke-linejoin:miter;stroke-opacity:1"/>
<path class="bond-18 atom-19 atom-20" d="M 230.9,70.8 L 231.9,56.7" style="fill:none;fill-rule:evenodd;stroke:#000000;stroke-width:2.0px;stroke-linecap:butt;stroke-linejoin:miter;stroke-opacity:1"/>
<path class="bond-18 atom-19 atom-20" d="M 231.9,56.7 L 232.9,42.6" style="fill:none;fill-rule:evenodd;stroke:#A01EEF;stroke-width:2.0px;stroke-linecap:butt;stroke-linejoin:miter;stroke-opacity:1"/>
<path class="bond-19 atom-19 atom-21" d="M 230.9,70.8 L 200.1,85.8" style="fill:none;fill-rule:evenodd;stroke:#000000;stroke-width:2.0px;stroke-linecap:butt;stroke-linejoin:miter;stroke-opacity:1"/>
<path class="bond-19 atom-19 atom-21" d="M 230.5,76.7 L 205.0,89.1" style="fill:none;fill-rule:evenodd;stroke:#000000;stroke-width:2.0px;stroke-linecap:butt;stroke-linejoin:miter;stroke-opacity:1"/>
<path class="bond-20 atom-21 atom-22" d="M 200.1,85.8 L 187.0,80.5" style="fill:none;fill-rule:evenodd;stroke:#000000;stroke-width:2.0px;stroke-linecap:butt;stroke-linejoin:miter;stroke-opacity:1"/>
<path class="bond-20 atom-21 atom-22" d="M 187.0,80.5 L 173.9,75.2" style="fill:none;fill-rule:evenodd;stroke:#FF0000;stroke-width:2.0px;stroke-linecap:butt;stroke-linejoin:miter;stroke-opacity:1"/>
<path class="bond-21 atom-5 atom-0" d="M 173.2,180.0 L 180.0,191.9" style="fill:none;fill-rule:evenodd;stroke:#0000FF;stroke-width:2.0px;stroke-linecap:butt;stroke-linejoin:miter;stroke-opacity:1"/>
<path class="bond-21 atom-5 atom-0" d="M 180.0,191.9 L 186.9,203.7" style="fill:none;fill-rule:evenodd;stroke:#000000;stroke-width:2.0px;stroke-linecap:butt;stroke-linejoin:miter;stroke-opacity:1"/>
<path class="bond-22 atom-22 atom-13" d="M 163.1,79.1 L 154.7,89.1" style="fill:none;fill-rule:evenodd;stroke:#FF0000;stroke-width:2.0px;stroke-linecap:butt;stroke-linejoin:miter;stroke-opacity:1"/>
<path class="bond-22 atom-22 atom-13" d="M 154.7,89.1 L 146.2,99.2" style="fill:none;fill-rule:evenodd;stroke:#000000;stroke-width:2.0px;stroke-linecap:butt;stroke-linejoin:miter;stroke-opacity:1"/>
<path class="bond-23 atom-21 atom-15" d="M 200.1,85.8 L 197.7,120.0" style="fill:none;fill-rule:evenodd;stroke:#000000;stroke-width:2.0px;stroke-linecap:butt;stroke-linejoin:miter;stroke-opacity:1"/>
<path d="M 186.0,205.2 L 186.9,203.7 L 186.5,203.1" style="fill:none;stroke:#000000;stroke-width:2.0px;stroke-linecap:butt;stroke-linejoin:miter;stroke-opacity:1;"/>
<path d="M 170.6,232.0 L 169.7,233.4 L 169.0,233.4" style="fill:none;stroke:#000000;stroke-width:2.0px;stroke-linecap:butt;stroke-linejoin:miter;stroke-opacity:1;"/>
<path d="M 118.6,204.3 L 118.3,203.7 L 119.1,202.3" style="fill:none;stroke:#000000;stroke-width:2.0px;stroke-linecap:butt;stroke-linejoin:miter;stroke-opacity:1;"/>
<path d="M 134.6,175.5 L 135.4,174.0 L 136.2,174.0" style="fill:none;stroke:#000000;stroke-width:2.0px;stroke-linecap:butt;stroke-linejoin:miter;stroke-opacity:1;"/>
<path d="M 62.0,61.9 L 62.8,63.5 L 63.5,63.5" style="fill:none;stroke:#000000;stroke-width:2.0px;stroke-linecap:butt;stroke-linejoin:miter;stroke-opacity:1;"/>
<path d="M 59.3,122.8 L 58.6,122.7 L 57.6,124.2" style="fill:none;stroke:#000000;stroke-width:2.0px;stroke-linecap:butt;stroke-linejoin:miter;stroke-opacity:1;"/>
<path d="M 163.5,126.8 L 164.4,128.3 L 166.0,127.9" style="fill:none;stroke:#000000;stroke-width:2.0px;stroke-linecap:butt;stroke-linejoin:miter;stroke-opacity:1;"/>
<path d="M 224.7,138.3 L 226.1,139.2 L 226.7,138.9" style="fill:none;stroke:#000000;stroke-width:2.0px;stroke-linecap:butt;stroke-linejoin:miter;stroke-opacity:1;"/>
<path d="M 259.3,90.7 L 259.4,90.0 L 257.9,89.0" style="fill:none;stroke:#000000;stroke-width:2.0px;stroke-linecap:butt;stroke-linejoin:miter;stroke-opacity:1;"/>
<path class="atom-2" d="M 122.2 228.6 L 123.5 228.6 L 123.5 232.7 L 128.5 232.7 L 128.5 228.6 L 129.8 228.6 L 129.8 238.3 L 128.5 238.3 L 128.5 233.8 L 123.5 233.8 L 123.5 238.3 L 122.2 238.3 L 122.2 228.6 " fill="#0000FF"/>
<path class="atom-2" d="M 133.3 228.6 L 136.5 233.7 Q 136.8 234.2, 137.3 235.2 Q 137.8 236.1, 137.8 236.1 L 137.8 228.6 L 139.1 228.6 L 139.1 238.3 L 137.8 238.3 L 134.4 232.7 Q 134.0 232.0, 133.5 231.3 Q 133.1 230.5, 133.0 230.3 L 133.0 238.3 L 131.7 238.3 L 131.7 228.6 L 133.3 228.6 " fill="#0000FF"/>
<path class="atom-5" d="M 167.6 169.2 L 170.8 174.3 Q 171.1 174.8, 171.6 175.7 Q 172.1 176.7, 172.1 176.7 L 172.1 169.2 L 173.4 169.2 L 173.4 178.9 L 172.1 178.9 L 168.7 173.3 Q 168.3 172.6, 167.8 171.9 Q 167.4 171.1, 167.3 170.9 L 167.3 178.9 L 166.0 178.9 L 166.0 169.2 L 167.6 169.2 " fill="#0000FF"/>
<path class="atom-5" d="M 175.3 169.2 L 176.6 169.2 L 176.6 173.3 L 181.6 173.3 L 181.6 169.2 L 182.9 169.2 L 182.9 178.9 L 181.6 178.9 L 181.6 174.4 L 176.6 174.4 L 176.6 178.9 L 175.3 178.9 L 175.3 169.2 " fill="#0000FF"/>
<path class="atom-8" d="M 92.5 65.9 Q 92.5 63.6, 93.7 62.3 Q 94.9 61.0, 97.0 61.0 Q 99.2 61.0, 100.3 62.3 Q 101.5 63.6, 101.5 65.9 Q 101.5 68.3, 100.3 69.6 Q 99.1 71.0, 97.0 71.0 Q 94.9 71.0, 93.7 69.6 Q 92.5 68.3, 92.5 65.9 M 97.0 69.9 Q 98.5 69.9, 99.3 68.9 Q 100.1 67.9, 100.1 65.9 Q 100.1 64.0, 99.3 63.1 Q 98.5 62.1, 97.0 62.1 Q 95.5 62.1, 94.7 63.1 Q 93.9 64.0, 93.9 65.9 Q 93.9 67.9, 94.7 68.9 Q 95.5 69.9, 97.0 69.9 " fill="#FF0000"/>
<path class="atom-10" d="M 88.3 125.2 Q 88.3 122.9, 89.5 121.6 Q 90.7 120.3, 92.8 120.3 Q 95.0 120.3, 96.1 121.6 Q 97.3 122.9, 97.3 125.2 Q 97.3 127.6, 96.1 128.9 Q 94.9 130.2, 92.8 130.2 Q 90.7 130.2, 89.5 128.9 Q 88.3 127.6, 88.3 125.2 M 92.8 129.1 Q 94.3 129.1, 95.1 128.1 Q 95.9 127.1, 95.9 125.2 Q 95.9 123.3, 95.1 122.3 Q 94.3 121.4, 92.8 121.4 Q 91.3 121.4, 90.5 122.3 Q 89.7 123.3, 89.7 125.2 Q 89.7 127.2, 90.5 128.1 Q 91.3 129.1, 92.8 129.1 " fill="#FF0000"/>
<path class="atom-17" d="M 254.8 119.4 L 258.0 124.5 Q 258.3 125.0, 258.8 125.9 Q 259.3 126.8, 259.3 126.9 L 259.3 119.4 L 260.6 119.4 L 260.6 129.1 L 259.3 129.1 L 255.9 123.4 Q 255.5 122.8, 255.0 122.0 Q 254.6 121.3, 254.5 121.0 L 254.5 129.1 L 253.2 129.1 L 253.2 119.4 L 254.8 119.4 " fill="#0000FF"/>
<path class="atom-20" d="M 232.7 31.7 L 234.0 31.7 L 234.0 41.5 L 232.7 41.5 L 232.7 31.7 " fill="#A01EEF"/>
<path class="atom-22" d="M 163.8 72.9 Q 163.8 70.6, 165.0 69.3 Q 166.1 68.0, 168.3 68.0 Q 170.5 68.0, 171.6 69.3 Q 172.8 70.6, 172.8 72.9 Q 172.8 75.3, 171.6 76.7 Q 170.4 78.0, 168.3 78.0 Q 166.2 78.0, 165.0 76.7 Q 163.8 75.3, 163.8 72.9 M 168.3 76.9 Q 169.8 76.9, 170.6 75.9 Q 171.4 74.9, 171.4 72.9 Q 171.4 71.0, 170.6 70.1 Q 169.8 69.1, 168.3 69.1 Q 166.8 69.1, 166.0 70.1 Q 165.2 71.0, 165.2 72.9 Q 165.2 74.9, 166.0 75.9 Q 166.8 76.9, 168.3 76.9 " fill="#FF0000"/>
<path class="legend" d="M 130.0 278.4 L 126.5 278.4 L 126.5 277.2 L 134.9 277.2 L 134.9 278.4 L 131.6 278.4 L 131.6 288.5 L 130.0 288.5 L 130.0 278.4 " fill="#000000"/>
<path class="legend" d="M 135.6 286.3 Q 135.6 284.9, 136.6 284.2 Q 137.7 283.5, 139.6 283.5 L 140.8 283.5 L 140.8 283.2 Q 140.8 282.2, 140.4 281.7 Q 140.0 281.3, 138.9 281.3 Q 138.3 281.3, 137.8 281.4 Q 137.3 281.5, 136.5 281.9 L 136.0 280.9 Q 137.5 280.1, 139.0 280.1 Q 140.7 280.1, 141.5 280.9 Q 142.3 281.6, 142.3 283.2 L 142.3 288.5 L 141.2 288.5 Q 141.1 288.4, 141.1 288.2 Q 141.0 287.9, 140.9 287.5 Q 139.8 288.7, 138.3 288.7 Q 137.0 288.7, 136.3 288.0 Q 135.6 287.4, 135.6 286.3 M 137.1 286.2 Q 137.1 286.8, 137.4 287.2 Q 137.8 287.5, 138.5 287.5 Q 139.2 287.5, 139.8 287.2 Q 140.4 286.9, 140.8 286.4 L 140.8 284.6 L 139.7 284.6 Q 138.4 284.6, 137.7 285.0 Q 137.1 285.4, 137.1 286.2 " fill="#000000"/>
<path class="legend" d="M 145.4 280.3 L 145.6 281.4 Q 146.5 280.1, 147.9 280.1 Q 148.3 280.1, 148.9 280.3 L 148.7 281.6 Q 148.0 281.5, 147.6 281.5 Q 147.0 281.5, 146.5 281.7 Q 146.1 282.0, 145.7 282.6 L 145.7 288.5 L 144.2 288.5 L 144.2 280.3 L 145.4 280.3 " fill="#000000"/>
<path class="legend" d="M 157.3 280.2 L 157.3 289.0 Q 157.3 292.5, 153.6 292.5 Q 151.8 292.5, 150.2 291.7 L 150.7 290.6 Q 151.5 291.0, 152.2 291.2 Q 152.8 291.3, 153.6 291.3 Q 154.8 291.3, 155.3 290.8 Q 155.8 290.2, 155.8 289.0 L 155.8 287.6 Q 155.0 288.6, 153.5 288.6 Q 151.8 288.6, 150.8 287.6 Q 149.9 286.5, 149.9 284.5 Q 149.9 282.4, 151.0 281.3 Q 152.1 280.1, 154.1 280.1 Q 155.1 280.1, 156.1 280.4 L 156.1 280.2 L 157.3 280.2 M 153.6 287.4 Q 154.4 287.4, 155.0 287.0 Q 155.6 286.5, 155.8 285.7 L 155.8 281.5 Q 155.0 281.3, 154.1 281.3 Q 152.8 281.3, 152.1 282.1 Q 151.4 283.0, 151.4 284.5 Q 151.4 285.9, 152.0 286.7 Q 152.5 287.4, 153.6 287.4 " fill="#000000"/>
<path class="legend" d="M 159.3 284.4 Q 159.3 282.3, 160.3 281.2 Q 161.3 280.1, 163.2 280.1 Q 165.0 280.1, 165.8 281.2 Q 166.6 282.3, 166.6 284.3 L 166.6 284.6 L 160.9 284.6 Q 160.9 286.0, 161.5 286.7 Q 162.1 287.4, 163.3 287.4 Q 163.9 287.4, 164.5 287.3 Q 165.1 287.1, 165.9 286.8 L 166.3 287.8 Q 165.5 288.2, 164.7 288.4 Q 164.0 288.6, 163.2 288.6 Q 161.4 288.6, 160.3 287.5 Q 159.3 286.4, 159.3 284.4 M 163.2 281.3 Q 162.2 281.3, 161.7 281.8 Q 161.1 282.4, 160.9 283.4 L 165.0 283.4 Q 164.9 282.3, 164.5 281.8 Q 164.0 281.3, 163.2 281.3 " fill="#000000"/>
<path class="legend" d="M 167.9 281.4 L 167.9 280.3 L 169.5 280.3 L 169.7 277.9 L 170.8 277.9 L 170.8 280.3 L 173.3 280.3 L 173.3 281.4 L 170.8 281.4 L 170.8 286.0 Q 170.8 287.4, 172.0 287.4 Q 172.5 287.4, 173.2 287.2 L 173.5 288.2 Q 172.6 288.6, 171.8 288.6 Q 170.7 288.6, 170.0 287.9 Q 169.3 287.3, 169.3 286.0 L 169.3 281.4 L 167.9 281.4 " fill="#000000"/>
<path class="bond-0 atom-0 atom-1" d="M 486.9,203.7 L 469.7,233.4" style="fill:none;fill-rule:evenodd;stroke:#000000;stroke-width:2.0px;stroke-linecap:butt;stroke-linejoin:miter;stroke-opacity:1"/>
<path class="bond-1 atom-1 atom-2" d="M 469.7,233.4 L 455.0,233.4" style="fill:none;fill-rule:evenodd;stroke:#000000;stroke-width:2.0px;stroke-linecap:butt;stroke-linejoin:miter;stroke-opacity:1"/>
<path class="bond-1 atom-1 atom-2" d="M 455.0,233.4 L 440.2,233.4" style="fill:none;fill-rule:evenodd;stroke:#0000FF;stroke-width:2.0px;stroke-linecap:butt;stroke-linejoin:miter;stroke-opacity:1"/>
<path class="bond-2 atom-2 atom-3" d="M 432.0,227.4 L 425.1,215.6" style="fill:none;fill-rule:evenodd;stroke:#0000FF;stroke-width:2.0px;stroke-linecap:butt;stroke-linejoin:miter;stroke-opacity:1"/>
<path class="bond-2 atom-2 atom-3" d="M 425.1,215.6 L 418.3,203.7" style="fill:none;fill-rule:evenodd;stroke:#000000;stroke-width:2.0px;stroke-linecap:butt;stroke-linejoin:miter;stroke-opacity:1"/>
<path class="bond-3 atom-3 atom-4" d="M 418.3,203.7 L 435.4,174.0" style="fill:none;fill-rule:evenodd;stroke:#000000;stroke-width:2.0px;stroke-linecap:butt;stroke-linejoin:miter;stroke-opacity:1"/>
<path class="bond-4 atom-4 atom-5" d="M 435.4,174.0 L 450.2,174.0" style="fill:none;fill-rule:evenodd;stroke:#000000;stroke-width:2.0px;stroke-linecap:butt;stroke-linejoin:miter;stroke-opacity:1"/>
<path class="bond-4 atom-4 atom-5" d="M 450.2,174.0 L 464.9,174.0" style="fill:none;fill-rule:evenodd;stroke:#0000FF;stroke-width:2.0px;stroke-linecap:butt;stroke-linejoin:miter;stroke-opacity:1"/>
<path class="bond-5 atom-6 atom-7" d="M 347.8,32.6 L 362.8,63.5" style="fill:none;fill-rule:evenodd;stroke:#000000;stroke-width:2.0px;stroke-linecap:butt;stroke-linejoin:miter;stroke-opacity:1"/>
<path class="bond-6 atom-7 atom-8" d="M 362.8,63.5 L 377.1,64.5" style="fill:none;fill-rule:evenodd;stroke:#000000;stroke-width:2.0px;stroke-linecap:butt;stroke-linejoin:miter;stroke-opacity:1"/>
<path class="bond-6 atom-7 atom-8" d="M 377.1,64.5 L 391.4,65.5" style="fill:none;fill-rule:evenodd;stroke:#FF0000;stroke-width:2.0px;stroke-linecap:butt;stroke-linejoin:miter;stroke-opacity:1"/>
<path class="bond-7 atom-8 atom-9" d="M 400.0,72.1 L 406.0,84.4" style="fill:none;fill-rule:evenodd;stroke:#FF0000;stroke-width:2.0px;stroke-linecap:butt;stroke-linejoin:miter;stroke-opacity:1"/>
<path class="bond-7 atom-8 atom-9" d="M 406.0,84.4 L 412.0,96.7" style="fill:none;fill-rule:evenodd;stroke:#000000;stroke-width:2.0px;stroke-linecap:butt;stroke-linejoin:miter;stroke-opacity:1"/>
<path class="bond-8 atom-9 atom-10" d="M 412.0,96.7 L 404.5,107.9" style="fill:none;fill-rule:evenodd;stroke:#000000;stroke-width:2.0px;stroke-linecap:butt;stroke-linejoin:miter;stroke-opacity:1"/>
<path class="bond-8 atom-9 atom-10" d="M 404.5,107.9 L 396.9,119.1" style="fill:none;fill-rule:evenodd;stroke:#FF0000;stroke-width:2.0px;stroke-linecap:butt;stroke-linejoin:miter;stroke-opacity:1"/>
<path class="bond-9 atom-10 atom-11" d="M 387.2,124.8 L 372.9,123.8" style="fill:none;fill-rule:evenodd;stroke:#FF0000;stroke-width:2.0px;stroke-linecap:butt;stroke-linejoin:miter;stroke-opacity:1"/>
<path class="bond-9 atom-10 atom-11" d="M 372.9,123.8 L 358.6,122.7" style="fill:none;fill-rule:evenodd;stroke:#000000;stroke-width:2.0px;stroke-linecap:butt;stroke-linejoin:miter;stroke-opacity:1"/>
<path class="bond-10 atom-11 atom-12" d="M 358.6,122.7 L 339.4,151.2" style="fill:none;fill-rule:evenodd;stroke:#000000;stroke-width:2.0px;stroke-linecap:butt;stroke-linejoin:miter;stroke-opacity:1"/>
<path class="bond-11 atom-9 atom-13" d="M 412.0,96.7 L 446.2,99.2" style="fill:none;fill-rule:evenodd;stroke:#000000;stroke-width:2.0px;stroke-linecap:butt;stroke-linejoin:miter;stroke-opacity:1"/>
<path class="bond-12 atom-13 atom-14" d="M 446.2,99.2 L 464.4,128.3" style="fill:none;fill-rule:evenodd;stroke:#000000;stroke-width:2.0px;stroke-linecap:butt;stroke-linejoin:miter;stroke-opacity:1"/>
<path class="bond-12 atom-13 atom-14" d="M 452.6,99.6 L 466.8,122.4" style="fill:none;fill-rule:evenodd;stroke:#000000;stroke-width:2.0px;stroke-linecap:butt;stroke-linejoin:miter;stroke-opacity:1"/>
<path class="bond-13 atom-14 atom-15" d="M 464.4,128.3 L 497.7,120.0" style="fill:none;fill-rule:evenodd;stroke:#000000;stroke-width:2.0px;stroke-linecap:butt;stroke-linejoin:miter;stroke-opacity:1"/>
<path class="bond-14 atom-15 atom-16" d="M 497.7,120.0 L 526.1,139.2" style="fill:none;fill-rule:evenodd;stroke:#000000;stroke-width:2.0px;stroke-linecap:butt;stroke-linejoin:miter;stroke-opacity:1"/>
<path class="bond-14 atom-15 atom-16" d="M 503.0,117.4 L 526.5,133.3" style="fill:none;fill-rule:evenodd;stroke:#000000;stroke-width:2.0px;stroke-linecap:butt;stroke-linejoin:miter;stroke-opacity:1"/>
<path class="bond-15 atom-16 atom-17" d="M 526.1,139.2 L 539.1,132.9" style="fill:none;fill-rule:evenodd;stroke:#000000;stroke-width:2.0px;stroke-linecap:butt;stroke-linejoin:miter;stroke-opacity:1"/>
<path class="bond-15 atom-16 atom-17" d="M 539.1,132.9 L 552.1,126.5" style="fill:none;fill-rule:evenodd;stroke:#0000FF;stroke-width:2.0px;stroke-linecap:butt;stroke-linejoin:miter;stroke-opacity:1"/>
<path class="bond-16 atom-17 atom-18" d="M 557.4,118.2 L 558.4,104.1" style="fill:none;fill-rule:evenodd;stroke:#0000FF;stroke-width:2.0px;stroke-linecap:butt;stroke-linejoin:miter;stroke-opacity:1"/>
<path class="bond-16 atom-17 atom-18" d="M 558.4,104.1 L 559.4,90.0" style="fill:none;fill-rule:evenodd;stroke:#000000;stroke-width:2.0px;stroke-linecap:butt;stroke-linejoin:miter;stroke-opacity:1"/>
<path class="bond-16 atom-17 atom-18" d="M 552.2,117.9 L 553.1,105.2" style="fill:none;fill-rule:evenodd;stroke:#0000FF;stroke-width:2.0px;stroke-linecap:butt;stroke-linejoin:miter;stroke-opacity:1"/>
<path class="bond-16 atom-17 atom-18" d="M 553.1,105.2 L 554.0,92.6" style="fill:none;fill-rule:evenodd;stroke:#000000;stroke-width:2.0px;stroke-linecap:butt;stroke-linejoin:miter;stroke-opacity:1"/>
<path class="bond-17 atom-18 atom-19" d="M 559.4,90.0 L 530.9,70.8" style="fill:none;fill-rule:evenodd;stroke:#000000;stroke-width:2.0px;stroke-linecap:butt;stroke-linejoin:miter;stroke-opacity:1"/>
<path class="bond-18 atom-19 atom-20" d="M 530.9,70.8 L 531.9,56.7" style="fill:none;fill-rule:evenodd;stroke:#000000;stroke-width:2.0px;stroke-linecap:butt;stroke-linejoin:miter;stroke-opacity:1"/>
<path class="bond-18 atom-19 atom-20" d="M 531.9,56.7 L 532.9,42.6" style="fill:none;fill-rule:evenodd;stroke:#7F4C19;stroke-width:2.0px;stroke-linecap:butt;stroke-linejoin:miter;stroke-opacity:1"/>
<path class="bond-19 atom-19 atom-21" d="M 530.9,70.8 L 500.1,85.8" style="fill:none;fill-rule:evenodd;stroke:#000000;stroke-width:2.0px;stroke-linecap:butt;stroke-linejoin:miter;stroke-opacity:1"/>
<path class="bond-19 atom-19 atom-21" d="M 530.5,76.7 L 505.0,89.1" style="fill:none;fill-rule:evenodd;stroke:#000000;stroke-width:2.0px;stroke-linecap:butt;stroke-linejoin:miter;stroke-opacity:1"/>
<path class="bond-20 atom-21 atom-22" d="M 500.1,85.8 L 487.0,80.5" style="fill:none;fill-rule:evenodd;stroke:#000000;stroke-width:2.0px;stroke-linecap:butt;stroke-linejoin:miter;stroke-opacity:1"/>
<path class="bond-20 atom-21 atom-22" d="M 487.0,80.5 L 473.9,75.2" style="fill:none;fill-rule:evenodd;stroke:#FF0000;stroke-width:2.0px;stroke-linecap:butt;stroke-linejoin:miter;stroke-opacity:1"/>
<path class="bond-21 atom-5 atom-0" d="M 473.2,180.0 L 480.0,191.9" style="fill:none;fill-rule:evenodd;stroke:#0000FF;stroke-width:2.0px;stroke-linecap:butt;stroke-linejoin:miter;stroke-opacity:1"/>
<path class="bond-21 atom-5 atom-0" d="M 480.0,191.9 L 486.9,203.7" style="fill:none;fill-rule:evenodd;stroke:#000000;stroke-width:2.0px;stroke-linecap:butt;stroke-linejoin:miter;stroke-opacity:1"/>
<path class="bond-22 atom-22 atom-13" d="M 463.1,79.1 L 454.7,89.1" style="fill:none;fill-rule:evenodd;stroke:#FF0000;stroke-width:2.0px;stroke-linecap:butt;stroke-linejoin:miter;stroke-opacity:1"/>
<path class="bond-22 atom-22 atom-13" d="M 454.7,89.1 L 446.2,99.2" style="fill:none;fill-rule:evenodd;stroke:#000000;stroke-width:2.0px;stroke-linecap:butt;stroke-linejoin:miter;stroke-opacity:1"/>
<path class="bond-23 atom-21 atom-15" d="M 500.1,85.8 L 497.7,120.0" style="fill:none;fill-rule:evenodd;stroke:#000000;stroke-width:2.0px;stroke-linecap:butt;stroke-linejoin:miter;stroke-opacity:1"/>
<path d="M 486.0,205.2 L 486.9,203.7 L 486.5,203.1" style="fill:none;stroke:#000000;stroke-width:2.0px;stroke-linecap:butt;stroke-linejoin:miter;stroke-opacity:1;"/>
<path d="M 470.6,231.9 L 469.7,233.4 L 469.0,233.4" style="fill:none;stroke:#000000;stroke-width:2.0px;stroke-linecap:butt;stroke-linejoin:miter;stroke-opacity:1;"/>
<path d="M 418.6,204.3 L 418.3,203.7 L 419.1,202.2" style="fill:none;stroke:#000000;stroke-width:2.0px;stroke-linecap:butt;stroke-linejoin:miter;stroke-opacity:1;"/>
<path d="M 434.6,175.5 L 435.4,174.0 L 436.2,174.0" style="fill:none;stroke:#000000;stroke-width:2.0px;stroke-linecap:butt;stroke-linejoin:miter;stroke-opacity:1;"/>
<path d="M 362.0,61.9 L 362.8,63.5 L 363.5,63.5" style="fill:none;stroke:#000000;stroke-width:2.0px;stroke-linecap:butt;stroke-linejoin:miter;stroke-opacity:1;"/>
<path d="M 359.3,122.8 L 358.6,122.7 L 357.6,124.2" style="fill:none;stroke:#000000;stroke-width:2.0px;stroke-linecap:butt;stroke-linejoin:miter;stroke-opacity:1;"/>
<path d="M 463.5,126.8 L 464.4,128.3 L 466.0,127.9" style="fill:none;stroke:#000000;stroke-width:2.0px;stroke-linecap:butt;stroke-linejoin:miter;stroke-opacity:1;"/>
<path d="M 524.7,138.3 L 526.1,139.2 L 526.7,138.9" style="fill:none;stroke:#000000;stroke-width:2.0px;stroke-linecap:butt;stroke-linejoin:miter;stroke-opacity:1;"/>
<path d="M 559.3,90.7 L 559.4,90.0 L 557.9,89.0" style="fill:none;stroke:#000000;stroke-width:2.0px;stroke-linecap:butt;stroke-linejoin:miter;stroke-opacity:1;"/>
<path class="atom-2" d="M 422.2 228.6 L 423.5 228.6 L 423.5 232.7 L 428.5 232.7 L 428.5 228.6 L 429.8 228.6 L 429.8 238.3 L 428.5 238.3 L 428.5 233.8 L 423.5 233.8 L 423.5 238.3 L 422.2 238.3 L 422.2 228.6 " fill="#0000FF"/>
<path class="atom-2" d="M 433.3 228.6 L 436.5 233.7 Q 436.8 234.2, 437.3 235.1 Q 437.8 236.1, 437.8 236.1 L 437.8 228.6 L 439.1 228.6 L 439.1 238.3 L 437.8 238.3 L 434.4 232.7 Q 434.0 232.0, 433.5 231.3 Q 433.1 230.5, 433.0 230.3 L 433.0 238.3 L 431.7 238.3 L 431.7 228.6 L 433.3 228.6 " fill="#0000FF"/>
<path class="atom-5" d="M 467.6 169.2 L 470.8 174.3 Q 471.1 174.8, 471.6 175.7 Q 472.1 176.7, 472.1 176.7 L 472.1 169.2 L 473.4 169.2 L 473.4 178.9 L 472.1 178.9 L 468.7 173.3 Q 468.3 172.6, 467.8 171.8 Q 467.4 171.1, 467.3 170.9 L 467.3 178.9 L 466.0 178.9 L 466.0 169.2 L 467.6 169.2 " fill="#0000FF"/>
<path class="atom-5" d="M 475.3 169.2 L 476.6 169.2 L 476.6 173.3 L 481.6 173.3 L 481.6 169.2 L 482.9 169.2 L 482.9 178.9 L 481.6 178.9 L 481.6 174.4 L 476.6 174.4 L 476.6 178.9 L 475.3 178.9 L 475.3 169.2 " fill="#0000FF"/>
<path class="atom-8" d="M 392.5 65.9 Q 392.5 63.6, 393.7 62.3 Q 394.9 61.0, 397.0 61.0 Q 399.2 61.0, 400.3 62.3 Q 401.5 63.6, 401.5 65.9 Q 401.5 68.3, 400.3 69.6 Q 399.1 71.0, 397.0 71.0 Q 394.9 71.0, 393.7 69.6 Q 392.5 68.3, 392.5 65.9 M 397.0 69.9 Q 398.5 69.9, 399.3 68.9 Q 400.1 67.9, 400.1 65.9 Q 400.1 64.0, 399.3 63.1 Q 398.5 62.1, 397.0 62.1 Q 395.5 62.1, 394.7 63.0 Q 393.9 64.0, 393.9 65.9 Q 393.9 67.9, 394.7 68.9 Q 395.5 69.9, 397.0 69.9 " fill="#FF0000"/>
<path class="atom-10" d="M 388.3 125.2 Q 388.3 122.9, 389.5 121.6 Q 390.7 120.2, 392.8 120.2 Q 395.0 120.2, 396.1 121.6 Q 397.3 122.9, 397.3 125.2 Q 397.3 127.5, 396.1 128.9 Q 394.9 130.2, 392.8 130.2 Q 390.7 130.2, 389.5 128.9 Q 388.3 127.6, 388.3 125.2 M 392.8 129.1 Q 394.3 129.1, 395.1 128.1 Q 395.9 127.1, 395.9 125.2 Q 395.9 123.3, 395.1 122.3 Q 394.3 121.3, 392.8 121.3 Q 391.3 121.3, 390.5 122.3 Q 389.7 123.3, 389.7 125.2 Q 389.7 127.2, 390.5 128.1 Q 391.3 129.1, 392.8 129.1 " fill="#FF0000"/>
<path class="atom-17" d="M 554.8 119.3 L 558.0 124.5 Q 558.3 125.0, 558.8 125.9 Q 559.3 126.8, 559.3 126.9 L 559.3 119.3 L 560.6 119.3 L 560.6 129.1 L 559.3 129.1 L 555.9 123.4 Q 555.5 122.8, 555.0 122.0 Q 554.6 121.3, 554.5 121.0 L 554.5 129.1 L 553.2 129.1 L 553.2 119.3 L 554.8 119.3 " fill="#0000FF"/>
<path class="atom-20" d="M 534.8 36.3 Q 535.7 36.6, 536.2 37.2 Q 536.7 37.7, 536.7 38.6 Q 536.7 39.9, 535.8 40.7 Q 534.9 41.4, 533.3 41.4 L 530.1 41.4 L 530.1 31.7 L 532.9 31.7 Q 534.6 31.7, 535.4 32.4 Q 536.3 33.1, 536.3 34.3 Q 536.3 35.8, 534.8 36.3 M 531.4 32.8 L 531.4 35.9 L 532.9 35.9 Q 533.9 35.9, 534.4 35.5 Q 534.9 35.1, 534.9 34.3 Q 534.9 32.8, 532.9 32.8 L 531.4 32.8 M 533.3 40.3 Q 534.3 40.3, 534.8 39.9 Q 535.3 39.4, 535.3 38.6 Q 535.3 37.8, 534.7 37.4 Q 534.2 37.0, 533.1 37.0 L 531.4 37.0 L 531.4 40.3 L 533.3 40.3 " fill="#7F4C19"/>
<path class="atom-20" d="M 538.9 34.4 L 539.0 35.3 Q 539.8 34.2, 541.0 34.2 Q 541.3 34.2, 541.9 34.4 L 541.7 35.5 Q 541.1 35.4, 540.7 35.4 Q 540.2 35.4, 539.8 35.6 Q 539.4 35.9, 539.1 36.4 L 539.1 41.4 L 537.8 41.4 L 537.8 34.4 L 538.9 34.4 " fill="#7F4C19"/>
<path class="atom-22" d="M 463.8 72.9 Q 463.8 70.6, 465.0 69.3 Q 466.1 68.0, 468.3 68.0 Q 470.5 68.0, 471.6 69.3 Q 472.8 70.6, 472.8 72.9 Q 472.8 75.3, 471.6 76.6 Q 470.4 78.0, 468.3 78.0 Q 466.2 78.0, 465.0 76.6 Q 463.8 75.3, 463.8 72.9 M 468.3 76.9 Q 469.8 76.9, 470.6 75.9 Q 471.4 74.9, 471.4 72.9 Q 471.4 71.0, 470.6 70.1 Q 469.8 69.1, 468.3 69.1 Q 466.8 69.1, 466.0 70.1 Q 465.2 71.0, 465.2 72.9 Q 465.2 74.9, 466.0 75.9 Q 466.8 76.9, 468.3 76.9 " fill="#FF0000"/>
<path class="legend" d="M 420.4 281.0 Q 422.4 281.0, 423.3 281.9 Q 424.3 282.8, 424.3 284.4 Q 424.3 285.9, 423.3 286.8 Q 422.3 287.7, 420.4 287.7 L 418.6 287.7 L 418.6 292.4 L 417.1 292.4 L 417.1 281.0 L 420.4 281.0 M 420.4 286.4 Q 421.5 286.4, 422.1 285.9 Q 422.7 285.4, 422.7 284.4 Q 422.7 283.4, 422.1 282.9 Q 421.5 282.3, 420.4 282.3 L 418.6 282.3 L 418.6 286.4 L 420.4 286.4 " fill="#000000"/>
<path class="legend" d="M 426.9 284.1 L 427.1 285.3 Q 427.9 284.0, 429.3 284.0 Q 429.8 284.0, 430.4 284.2 L 430.1 285.5 Q 429.5 285.3, 429.1 285.3 Q 428.4 285.3, 428.0 285.6 Q 427.5 285.9, 427.2 286.5 L 427.2 292.4 L 425.7 292.4 L 425.7 284.1 L 426.9 284.1 " fill="#000000"/>
<path class="legend" d="M 431.2 288.2 Q 431.2 286.2, 432.3 285.1 Q 433.3 284.0, 435.1 284.0 Q 436.9 284.0, 437.7 285.1 Q 438.5 286.2, 438.5 288.2 L 438.5 288.5 L 432.8 288.5 Q 432.8 289.8, 433.4 290.6 Q 434.1 291.3, 435.2 291.3 Q 435.9 291.3, 436.5 291.2 Q 437.1 291.0, 437.8 290.7 L 438.2 291.7 Q 437.4 292.1, 436.7 292.3 Q 435.9 292.5, 435.1 292.5 Q 433.3 292.5, 432.3 291.4 Q 431.2 290.3, 431.2 288.2 M 435.1 285.2 Q 434.2 285.2, 433.6 285.7 Q 433.0 286.3, 432.8 287.3 L 436.9 287.3 Q 436.8 286.2, 436.4 285.7 Q 435.9 285.2, 435.1 285.2 " fill="#000000"/>
<path class="legend" d="M 447.2 280.2 L 447.2 292.4 L 446.0 292.4 L 445.8 291.3 Q 444.9 292.5, 443.4 292.5 Q 441.6 292.5, 440.7 291.4 Q 439.7 290.4, 439.7 288.4 Q 439.7 286.3, 440.9 285.2 Q 442.0 284.0, 444.0 284.0 Q 444.8 284.0, 445.7 284.2 L 445.7 280.2 L 447.2 280.2 M 443.5 291.3 Q 444.3 291.3, 444.9 290.9 Q 445.5 290.4, 445.7 289.6 L 445.7 285.4 Q 444.9 285.2, 444.0 285.2 Q 442.7 285.2, 442.0 286.0 Q 441.3 286.9, 441.3 288.4 Q 441.3 289.8, 441.8 290.6 Q 442.4 291.3, 443.5 291.3 " fill="#000000"/>
<path class="legend" d="M 449.1 281.0 L 450.6 281.0 L 450.6 282.4 L 449.1 282.4 L 449.1 281.0 M 449.1 284.1 L 450.6 284.1 L 450.6 292.4 L 449.1 292.4 L 449.1 284.1 " fill="#000000"/>
<path class="legend" d="M 452.6 288.2 Q 452.6 286.3, 453.6 285.1 Q 454.6 284.0, 456.5 284.0 Q 458.4 284.0, 459.4 285.4 L 458.4 286.1 Q 458.0 285.7, 457.5 285.4 Q 457.1 285.2, 456.5 285.2 Q 455.4 285.2, 454.7 286.0 Q 454.1 286.7, 454.1 288.2 Q 454.1 289.8, 454.8 290.5 Q 455.4 291.3, 456.6 291.3 Q 457.3 291.3, 457.7 291.2 Q 458.2 291.0, 458.8 290.8 L 459.2 291.8 Q 458.0 292.5, 456.5 292.5 Q 454.6 292.5, 453.6 291.3 Q 452.6 290.2, 452.6 288.2 " fill="#000000"/>
<path class="legend" d="M 460.4 285.3 L 460.4 284.1 L 461.9 284.1 L 462.2 281.7 L 463.3 281.7 L 463.3 284.1 L 465.8 284.1 L 465.8 285.3 L 463.3 285.3 L 463.3 289.8 Q 463.3 291.3, 464.5 291.3 Q 465.0 291.3, 465.7 291.0 L 465.9 292.1 Q 465.1 292.5, 464.2 292.5 Q 463.2 292.5, 462.5 291.8 Q 461.8 291.2, 461.8 289.9 L 461.8 285.3 L 460.4 285.3 " fill="#000000"/>
<path class="legend" d="M 467.0 288.2 Q 467.0 286.2, 468.0 285.1 Q 469.0 284.0, 470.8 284.0 Q 472.6 284.0, 473.4 285.1 Q 474.2 286.2, 474.2 288.2 L 474.2 288.5 L 468.5 288.5 Q 468.5 289.8, 469.1 290.6 Q 469.8 291.3, 470.9 291.3 Q 471.6 291.3, 472.2 291.2 Q 472.8 291.0, 473.5 290.7 L 473.9 291.7 Q 473.1 292.1, 472.4 292.3 Q 471.6 292.5, 470.9 292.5 Q 469.0 292.5, 468.0 291.4 Q 467.0 290.3, 467.0 288.2 M 470.8 285.2 Q 469.9 285.2, 469.3 285.7 Q 468.7 286.3, 468.6 287.3 L 472.7 287.3 Q 472.5 286.2, 472.1 285.7 Q 471.6 285.2, 470.8 285.2 " fill="#000000"/>
<path class="legend" d="M 482.9 280.2 L 482.9 292.4 L 481.7 292.4 L 481.5 291.3 Q 480.6 292.5, 479.1 292.5 Q 477.4 292.5, 476.4 291.4 Q 475.5 290.4, 475.5 288.4 Q 475.5 286.3, 476.6 285.2 Q 477.7 284.0, 479.7 284.0 Q 480.5 284.0, 481.4 284.2 L 481.4 280.2 L 482.9 280.2 M 479.2 291.3 Q 480.0 291.3, 480.6 290.9 Q 481.2 290.4, 481.4 289.6 L 481.4 285.4 Q 480.6 285.2, 479.7 285.2 Q 478.4 285.2, 477.7 286.0 Q 477.0 286.9, 477.0 288.4 Q 477.0 289.8, 477.6 290.6 Q 478.1 291.3, 479.2 291.3 " fill="#000000"/>
<path class="bond-0 atom-0 atom-1" d="M 666.9,50.1 L 668.9,84.4" style="fill:none;fill-rule:evenodd;stroke:#000000;stroke-width:2.0px;stroke-linecap:butt;stroke-linejoin:miter;stroke-opacity:1"/>
<path class="bond-1 atom-1 atom-2" d="M 668.9,84.4 L 681.5,90.7" style="fill:none;fill-rule:evenodd;stroke:#000000;stroke-width:2.0px;stroke-linecap:butt;stroke-linejoin:miter;stroke-opacity:1"/>
<path class="bond-1 atom-1 atom-2" d="M 681.5,90.7 L 694.0,97.0" style="fill:none;fill-rule:evenodd;stroke:#FF0000;stroke-width:2.0px;stroke-linecap:butt;stroke-linejoin:miter;stroke-opacity:1"/>
<path class="bond-2 atom-2 atom-3" d="M 699.9,106.0 L 700.8,120.0" style="fill:none;fill-rule:evenodd;stroke:#FF0000;stroke-width:2.0px;stroke-linecap:butt;stroke-linejoin:miter;stroke-opacity:1"/>
<path class="bond-2 atom-2 atom-3" d="M 700.8,120.0 L 701.6,134.0" style="fill:none;fill-rule:evenodd;stroke:#000000;stroke-width:2.0px;stroke-linecap:butt;stroke-linejoin:miter;stroke-opacity:1"/>
<path class="bond-3 atom-3 atom-4" d="M 701.6,134.0 L 690.1,141.6" style="fill:none;fill-rule:evenodd;stroke:#000000;stroke-width:2.0px;stroke-linecap:butt;stroke-linejoin:miter;stroke-opacity:1"/>
<path class="bond-3 atom-3 atom-4" d="M 690.1,141.6 L 678.5,149.2" style="fill:none;fill-rule:evenodd;stroke:#FF0000;stroke-width:2.0px;stroke-linecap:butt;stroke-linejoin:miter;stroke-opacity:1"/>
<path class="bond-4 atom-4 atom-5" d="M 667.4,150.1 L 654.8,143.8" style="fill:none;fill-rule:evenodd;stroke:#FF0000;stroke-width:2.0px;stroke-linecap:butt;stroke-linejoin:miter;stroke-opacity:1"/>
<path class="bond-4 atom-4 atom-5" d="M 654.8,143.8 L 642.3,137.5" style="fill:none;fill-rule:evenodd;stroke:#000000;stroke-width:2.0px;stroke-linecap:butt;stroke-linejoin:miter;stroke-opacity:1"/>
<path class="bond-5 atom-5 atom-6" d="M 642.3,137.5 L 613.6,156.3" style="fill:none;fill-rule:evenodd;stroke:#000000;stroke-width:2.0px;stroke-linecap:butt;stroke-linejoin:miter;stroke-opacity:1"/>
<path class="bond-6 atom-3 atom-7" d="M 701.6,134.0 L 732.3,149.4" style="fill:none;fill-rule:evenodd;stroke:#000000;stroke-width:2.0px;stroke-linecap:butt;stroke-linejoin:miter;stroke-opacity:1"/>
<path class="bond-7 atom-7 atom-8" d="M 732.3,149.4 L 737.8,183.2" style="fill:none;fill-rule:evenodd;stroke:#000000;stroke-width:2.0px;stroke-linecap:butt;stroke-linejoin:miter;stroke-opacity:1"/>
<path class="bond-7 atom-7 atom-8" d="M 737.9,152.2 L 742.3,178.7" style="fill:none;fill-rule:evenodd;stroke:#000000;stroke-width:2.0px;stroke-linecap:butt;stroke-linejoin:miter;stroke-opacity:1"/>
<path class="bond-8 atom-8 atom-9" d="M 737.8,183.2 L 771.7,188.4" style="fill:none;fill-rule:evenodd;stroke:#000000;stroke-width:2.0px;stroke-linecap:butt;stroke-linejoin:miter;stroke-opacity:1"/>
<path class="bond-9 atom-9 atom-10" d="M 771.7,188.4 L 790.6,217.0" style="fill:none;fill-rule:evenodd;stroke:#000000;stroke-width:2.0px;stroke-linecap:butt;stroke-linejoin:miter;stroke-opacity:1"/>
<path class="bond-9 atom-9 atom-10" d="M 777.7,188.0 L 793.3,211.7" style="fill:none;fill-rule:evenodd;stroke:#000000;stroke-width:2.0px;stroke-linecap:butt;stroke-linejoin:miter;stroke-opacity:1"/>
<path class="bond-10 atom-10 atom-11" d="M 790.6,217.0 L 805.3,216.2" style="fill:none;fill-rule:evenodd;stroke:#000000;stroke-width:2.0px;stroke-linecap:butt;stroke-linejoin:miter;stroke-opacity:1"/>
<path class="bond-10 atom-10 atom-11" d="M 805.3,216.2 L 820.0,215.3" style="fill:none;fill-rule:evenodd;stroke:#0000FF;stroke-width:2.0px;stroke-linecap:butt;stroke-linejoin:miter;stroke-opacity:1"/>
<path class="bond-11 atom-11 atom-12" d="M 827.9,209.0 L 834.0,196.7" style="fill:none;fill-rule:evenodd;stroke:#0000FF;stroke-width:2.0px;stroke-linecap:butt;stroke-linejoin:miter;stroke-opacity:1"/>
<path class="bond-11 atom-11 atom-12" d="M 834.0,196.7 L 840.2,184.3" style="fill:none;fill-rule:evenodd;stroke:#000000;stroke-width:2.0px;stroke-linecap:butt;stroke-linejoin:miter;stroke-opacity:1"/>
<path class="bond-11 atom-11 atom-12" d="M 823.3,206.7 L 828.8,195.7" style="fill:none;fill-rule:evenodd;stroke:#0000FF;stroke-width:2.0px;stroke-linecap:butt;stroke-linejoin:miter;stroke-opacity:1"/>
<path class="bond-11 atom-11 atom-12" d="M 828.8,195.7 L 834.3,184.7" style="fill:none;fill-rule:evenodd;stroke:#000000;stroke-width:2.0px;stroke-linecap:butt;stroke-linejoin:miter;stroke-opacity:1"/>
<path class="bond-12 atom-12 atom-13" d="M 840.2,184.3 L 821.4,155.7" style="fill:none;fill-rule:evenodd;stroke:#000000;stroke-width:2.0px;stroke-linecap:butt;stroke-linejoin:miter;stroke-opacity:1"/>
<path class="bond-13 atom-13 atom-14" d="M 821.4,155.7 L 827.6,143.4" style="fill:none;fill-rule:evenodd;stroke:#000000;stroke-width:2.0px;stroke-linecap:butt;stroke-linejoin:miter;stroke-opacity:1"/>
<path class="bond-13 atom-13 atom-14" d="M 827.6,143.4 L 833.7,131.0" style="fill:none;fill-rule:evenodd;stroke:#0000FF;stroke-width:2.0px;stroke-linecap:butt;stroke-linejoin:miter;stroke-opacity:1"/>
<path class="bond-14 atom-14 atom-15" d="M 841.6,124.8 L 856.3,123.9" style="fill:none;fill-rule:evenodd;stroke:#0000FF;stroke-width:2.0px;stroke-linecap:butt;stroke-linejoin:miter;stroke-opacity:1"/>
<path class="bond-14 atom-14 atom-15" d="M 856.3,123.9 L 871.0,123.0" style="fill:none;fill-rule:evenodd;stroke:#000000;stroke-width:2.0px;stroke-linecap:butt;stroke-linejoin:miter;stroke-opacity:1"/>
<path class="bond-15 atom-15 atom-16" d="M 871.0,123.0 L 886.4,92.4" style="fill:none;fill-rule:evenodd;stroke:#000000;stroke-width:2.0px;stroke-linecap:butt;stroke-linejoin:miter;stroke-opacity:1"/>
<path class="bond-16 atom-16 atom-17" d="M 886.4,92.4 L 878.9,81.0" style="fill:none;fill-rule:evenodd;stroke:#000000;stroke-width:2.0px;stroke-linecap:butt;stroke-linejoin:miter;stroke-opacity:1"/>
<path class="bond-16 atom-16 atom-17" d="M 878.9,81.0 L 871.4,69.7" style="fill:none;fill-rule:evenodd;stroke:#0000FF;stroke-width:2.0px;stroke-linecap:butt;stroke-linejoin:miter;stroke-opacity:1"/>
<path class="bond-17 atom-17 atom-18" d="M 862.7,64.0 L 848.0,64.9" style="fill:none;fill-rule:evenodd;stroke:#0000FF;stroke-width:2.0px;stroke-linecap:butt;stroke-linejoin:miter;stroke-opacity:1"/>
<path class="bond-17 atom-17 atom-18" d="M 848.0,64.9 L 833.3,65.7" style="fill:none;fill-rule:evenodd;stroke:#000000;stroke-width:2.0px;stroke-linecap:butt;stroke-linejoin:miter;stroke-opacity:1"/>
<path class="bond-18 atom-18 atom-19" d="M 833.3,65.7 L 817.9,96.4" style="fill:none;fill-rule:evenodd;stroke:#000000;stroke-width:2.0px;stroke-linecap:butt;stroke-linejoin:miter;stroke-opacity:1"/>
<path class="bond-19 atom-13 atom-20" d="M 821.4,155.7 L 787.1,157.7" style="fill:none;fill-rule:evenodd;stroke:#000000;stroke-width:2.0px;stroke-linecap:butt;stroke-linejoin:miter;stroke-opacity:1"/>
<path class="bond-19 atom-13 atom-20" d="M 818.7,161.0 L 790.4,162.7" style="fill:none;fill-rule:evenodd;stroke:#000000;stroke-width:2.0px;stroke-linecap:butt;stroke-linejoin:miter;stroke-opacity:1"/>
<path class="bond-20 atom-20 atom-21" d="M 787.1,157.7 L 777.7,148.4" style="fill:none;fill-rule:evenodd;stroke:#000000;stroke-width:2.0px;stroke-linecap:butt;stroke-linejoin:miter;stroke-opacity:1"/>
<path class="bond-20 atom-20 atom-21" d="M 777.7,148.4 L 768.3,139.1" style="fill:none;fill-rule:evenodd;stroke:#FF0000;stroke-width:2.0px;stroke-linecap:butt;stroke-linejoin:miter;stroke-opacity:1"/>
<path class="bond-21 atom-21 atom-7" d="M 757.1,136.5 L 744.7,142.9" style="fill:none;fill-rule:evenodd;stroke:#FF0000;stroke-width:2.0px;stroke-linecap:butt;stroke-linejoin:miter;stroke-opacity:1"/>
<path class="bond-21 atom-21 atom-7" d="M 744.7,142.9 L 732.3,149.4" style="fill:none;fill-rule:evenodd;stroke:#000000;stroke-width:2.0px;stroke-linecap:butt;stroke-linejoin:miter;stroke-opacity:1"/>
<path class="bond-22 atom-20 atom-9" d="M 787.1,157.7 L 771.7,188.4" style="fill:none;fill-rule:evenodd;stroke:#000000;stroke-width:2.0px;stroke-linecap:butt;stroke-linejoin:miter;stroke-opacity:1"/>
<path class="bond-23 atom-19 atom-14" d="M 817.9,96.4 L 825.3,107.7" style="fill:none;fill-rule:evenodd;stroke:#000000;stroke-width:2.0px;stroke-linecap:butt;stroke-linejoin:miter;stroke-opacity:1"/>
<path class="bond-23 atom-19 atom-14" d="M 825.3,107.7 L 832.8,119.1" style="fill:none;fill-rule:evenodd;stroke:#0000FF;stroke-width:2.0px;stroke-linecap:butt;stroke-linejoin:miter;stroke-opacity:1"/>
<path d="M 668.8,82.7 L 668.9,84.4 L 669.5,84.7" style="fill:none;stroke:#000000;stroke-width:2.0px;stroke-linecap:butt;stroke-linejoin:miter;stroke-opacity:1;"/>
<path d="M 642.9,137.8 L 642.3,137.5 L 640.9,138.4" style="fill:none;stroke:#000000;stroke-width:2.0px;stroke-linecap:butt;stroke-linejoin:miter;stroke-opacity:1;"/>
<path d="M 737.6,181.5 L 737.8,183.2 L 739.5,183.5" style="fill:none;stroke:#000000;stroke-width:2.0px;stroke-linecap:butt;stroke-linejoin:miter;stroke-opacity:1;"/>
<path d="M 789.7,215.6 L 790.6,217.0 L 791.3,217.0" style="fill:none;stroke:#000000;stroke-width:2.0px;stroke-linecap:butt;stroke-linejoin:miter;stroke-opacity:1;"/>
<path d="M 839.9,185.0 L 840.2,184.3 L 839.3,182.9" style="fill:none;stroke:#000000;stroke-width:2.0px;stroke-linecap:butt;stroke-linejoin:miter;stroke-opacity:1;"/>
<path d="M 870.2,123.1 L 871.0,123.0 L 871.8,121.5" style="fill:none;stroke:#000000;stroke-width:2.0px;stroke-linecap:butt;stroke-linejoin:miter;stroke-opacity:1;"/>
<path d="M 885.6,93.9 L 886.4,92.4 L 886.0,91.8" style="fill:none;stroke:#000000;stroke-width:2.0px;stroke-linecap:butt;stroke-linejoin:miter;stroke-opacity:1;"/>
<path d="M 834.0,65.7 L 833.3,65.7 L 832.5,67.3" style="fill:none;stroke:#000000;stroke-width:2.0px;stroke-linecap:butt;stroke-linejoin:miter;stroke-opacity:1;"/>
<path d="M 818.6,94.9 L 817.9,96.4 L 818.3,97.0" style="fill:none;stroke:#000000;stroke-width:2.0px;stroke-linecap:butt;stroke-linejoin:miter;stroke-opacity:1;"/>
<path class="atom-2" d="M 695.1 99.8 Q 695.1 97.5, 696.3 96.1 Q 697.4 94.8, 699.6 94.8 Q 701.7 94.8, 702.9 96.1 Q 704.0 97.5, 704.0 99.8 Q 704.0 102.1, 702.9 103.5 Q 701.7 104.8, 699.6 104.8 Q 697.4 104.8, 696.3 103.5 Q 695.1 102.2, 695.1 99.8 M 699.6 103.7 Q 701.1 103.7, 701.9 102.7 Q 702.7 101.7, 702.7 99.8 Q 702.7 97.9, 701.9 96.9 Q 701.1 95.9, 699.6 95.9 Q 698.1 95.9, 697.3 96.9 Q 696.5 97.9, 696.5 99.8 Q 696.5 101.7, 697.3 102.7 Q 698.1 103.7, 699.6 103.7 " fill="#FF0000"/>
<path class="atom-4" d="M 668.5 152.9 Q 668.5 150.6, 669.6 149.3 Q 670.8 147.9, 672.9 147.9 Q 675.1 147.9, 676.3 149.3 Q 677.4 150.6, 677.4 152.9 Q 677.4 155.2, 676.2 156.6 Q 675.1 157.9, 672.9 157.9 Q 670.8 157.9, 669.6 156.6 Q 668.5 155.3, 668.5 152.9 M 672.9 156.8 Q 674.4 156.8, 675.2 155.8 Q 676.0 154.8, 676.0 152.9 Q 676.0 151.0, 675.2 150.0 Q 674.4 149.0, 672.9 149.0 Q 671.5 149.0, 670.7 150.0 Q 669.9 151.0, 669.9 152.9 Q 669.9 154.8, 670.7 155.8 Q 671.5 156.8, 672.9 156.8 " fill="#FF0000"/>
<path class="atom-11" d="M 822.7 210.2 L 825.9 215.3 Q 826.2 215.8, 826.7 216.7 Q 827.2 217.6, 827.2 217.7 L 827.2 210.2 L 828.5 210.2 L 828.5 219.9 L 827.2 219.9 L 823.8 214.2 Q 823.4 213.6, 823.0 212.8 Q 822.6 212.1, 822.4 211.8 L 822.4 219.9 L 821.2 219.9 L 821.2 210.2 L 822.7 210.2 " fill="#0000FF"/>
<path class="atom-14" d="M 834.6 120.2 L 837.8 125.3 Q 838.1 125.8, 838.6 126.8 Q 839.1 127.7, 839.1 127.7 L 839.1 120.2 L 840.4 120.2 L 840.4 129.9 L 839.1 129.9 L 835.7 124.3 Q 835.3 123.6, 834.9 122.9 Q 834.4 122.1, 834.3 121.9 L 834.3 129.9 L 833.1 129.9 L 833.1 120.2 L 834.6 120.2 " fill="#0000FF"/>
<path class="atom-17" d="M 865.4 58.9 L 868.5 64.0 Q 868.9 64.5, 869.4 65.4 Q 869.9 66.4, 869.9 66.4 L 869.9 58.9 L 871.2 58.9 L 871.2 68.6 L 869.9 68.6 L 866.4 63.0 Q 866.0 62.3, 865.6 61.5 Q 865.2 60.8, 865.1 60.5 L 865.1 68.6 L 863.8 68.6 L 863.8 58.9 L 865.4 58.9 " fill="#0000FF"/>
<path class="atom-17" d="M 873.1 58.9 L 874.4 58.9 L 874.4 63.0 L 879.4 63.0 L 879.4 58.9 L 880.7 58.9 L 880.7 68.6 L 879.4 68.6 L 879.4 64.1 L 874.4 64.1 L 874.4 68.6 L 873.1 68.6 L 873.1 58.9 " fill="#0000FF"/>
<path class="atom-21" d="M 758.3 133.6 Q 758.3 131.3, 759.4 130.0 Q 760.6 128.7, 762.7 128.7 Q 764.9 128.7, 766.0 130.0 Q 767.2 131.3, 767.2 133.6 Q 767.2 136.0, 766.0 137.3 Q 764.8 138.7, 762.7 138.7 Q 760.6 138.7, 759.4 137.3 Q 758.3 136.0, 758.3 133.6 M 762.7 137.6 Q 764.2 137.6, 765.0 136.6 Q 765.8 135.6, 765.8 133.6 Q 765.8 131.7, 765.0 130.8 Q 764.2 129.8, 762.7 129.8 Q 761.2 129.8, 760.4 130.8 Q 759.6 131.7, 759.6 133.6 Q 759.6 135.6, 760.4 136.6 Q 761.2 137.6, 762.7 137.6 " fill="#FF0000"/>
<path class="legend" d="M 732.3 277.2 L 733.8 277.2 L 733.8 288.6 L 732.3 288.6 L 732.3 277.2 " fill="#000000"/>
<path class="legend" d="M 740.0 280.2 Q 741.4 280.2, 742.0 281.0 Q 742.7 281.7, 742.7 283.1 L 742.7 288.6 L 741.2 288.6 L 741.2 283.3 Q 741.2 282.3, 740.9 281.8 Q 740.5 281.4, 739.7 281.4 Q 738.9 281.4, 738.3 281.7 Q 737.7 282.1, 737.3 282.7 L 737.3 288.6 L 735.8 288.6 L 735.8 280.4 L 737.0 280.4 L 737.2 281.5 Q 738.3 280.2, 740.0 280.2 " fill="#000000"/>
<path class="legend" d="M 748.4 280.2 Q 750.1 280.2, 751.0 281.3 Q 752.0 282.3, 752.0 284.3 Q 752.0 286.4, 750.9 287.6 Q 749.7 288.7, 747.8 288.7 Q 746.8 288.7, 746.1 288.5 L 746.1 292.5 L 744.6 292.5 L 744.6 280.4 L 745.8 280.4 L 746.0 281.3 Q 746.4 280.8, 747.0 280.5 Q 747.6 280.2, 748.4 280.2 M 747.8 287.5 Q 749.0 287.5, 749.7 286.7 Q 750.5 285.8, 750.5 284.3 Q 750.5 282.9, 749.9 282.2 Q 749.3 281.4, 748.3 281.4 Q 747.5 281.4, 746.9 281.8 Q 746.3 282.3, 746.1 283.0 L 746.1 287.3 Q 746.9 287.5, 747.8 287.5 " fill="#000000"/>
<path class="legend" d="M 760.3 280.4 L 760.3 288.6 L 759.0 288.6 L 758.9 287.4 Q 757.8 288.7, 756.1 288.7 Q 754.7 288.7, 754.0 288.0 Q 753.3 287.2, 753.3 285.8 L 753.3 280.4 L 754.8 280.4 L 754.8 285.7 Q 754.8 286.7, 755.2 287.1 Q 755.5 287.5, 756.4 287.5 Q 757.1 287.5, 757.7 287.2 Q 758.4 286.9, 758.8 286.2 L 758.8 280.4 L 760.3 280.4 " fill="#000000"/>
<path class="legend" d="M 762.2 281.5 L 762.2 280.4 L 763.7 280.4 L 764.0 278.0 L 765.1 278.0 L 765.1 280.4 L 767.6 280.4 L 767.6 281.5 L 765.1 281.5 L 765.1 286.1 Q 765.1 287.5, 766.3 287.5 Q 766.8 287.5, 767.5 287.3 L 767.7 288.3 Q 766.9 288.7, 766.0 288.7 Q 765.0 288.7, 764.3 288.0 Q 763.6 287.4, 763.6 286.1 L 763.6 281.5 L 762.2 281.5 " fill="#000000"/>
</svg>